<svg xmlns="http://www.w3.org/2000/svg" version="1.0" preserveAspectRatio="xMidYMid meet"
    viewBox="25.46 43 1355.24 984.51">

    <g transform="translate(0.000000,1080.000000) scale(0.100000,-0.100000)" fill="#000000" stroke="none">
        <path
            d="M6673 10351 c-53 -25 -83 -71 -83 -129 0 -54 22 -97 60 -117 16 -8 68 -24 117 -35 97 -23 133 -47 133 -91 0 -15 -12 -41 -26 -58 -42 -51 -128 -54 -197 -7 -32 22 -36 23 -61 7 -14 -8 -26 -19 -26 -23 0 -18 85 -67 132 -77 145 -32 270 66 243 188 -15 71 -64 101 -209 131 -102 21 -132 80 -70 137 39 36 86 39 146 10 41 -21 55 -23 74 -15 35 16 30 34 -17 65 -56 37 -154 43 -216 14z" />
        <path
            d="M7280 10360 c0 -29 25 -60 49 -60 14 0 42 -3 61 -6 l35 -6 -17 -191 c-9 -106 -17 -213 -17 -239 -1 -47 0 -48 28 -48 27 0 30 3 35 43 7 51 36 388 36 414 0 16 8 18 68 15 64 -3 69 -2 82 22 7 14 11 28 9 30 -4 4 -324 36 -358 36 -6 0 -11 -4 -11 -10z" />
        <path
            d="M6040 10277 c-85 -16 -157 -31 -158 -33 -2 -1 20 -122 48 -269 45 -226 55 -266 69 -262 9 2 82 17 164 32 81 16 147 32 147 35 -1 3 -10 16 -21 29 l-19 24 -108 -22 c-59 -11 -112 -21 -118 -21 -9 0 -49 159 -41 166 1 1 49 11 106 23 58 12 106 23 108 25 2 2 1 15 -3 30 -7 31 -11 31 -129 6 -49 -10 -92 -17 -94 -15 -5 6 -30 127 -31 150 0 18 12 23 104 39 57 10 109 21 114 25 14 9 33 59 24 64 -4 2 -77 -10 -162 -26z" />
        <path
            d="M8000 10223 c-7 -32 -31 -151 -55 -266 l-43 -207 32 -8 31 -8 54 263 c30 145 52 265 50 267 -2 2 -16 7 -31 11 -25 6 -27 5 -38 -52z" />
        <path
            d="M8356 9924 c-47 -142 -82 -261 -78 -265 4 -4 17 -10 29 -13 20 -6 25 5 80 170 l59 177 90 -226 c49 -125 91 -227 94 -227 6 0 173 511 168 515 -2 2 -15 6 -29 10 -27 7 -27 6 -84 -165 -31 -94 -58 -170 -60 -168 -2 2 -42 102 -89 223 -48 121 -89 221 -90 223 -2 2 -43 -113 -90 -254z" />
        <path
            d="M5220 10036 c-52 -18 -107 -39 -122 -45 l-28 -10 29 -78 c16 -43 57 -157 91 -253 35 -96 64 -176 65 -178 6 -9 245 92 274 116 127 102 135 288 17 405 -46 46 -99 69 -170 74 -51 3 -77 -2 -156 -31z m225 -55 c52 -23 102 -81 111 -126 19 -103 -20 -193 -104 -237 -57 -31 -150 -64 -157 -56 -8 8 -135 358 -135 373 0 19 135 63 195 64 28 0 67 -7 90 -18z" />
        <path
            d="M9129 9620 c-123 -100 -225 -185 -227 -190 -1 -4 11 -13 28 -20 28 -12 33 -10 72 22 24 19 49 38 55 42 7 4 56 -15 113 -44 l100 -52 -6 -67 c-6 -65 -6 -68 21 -85 15 -10 31 -14 35 -9 9 10 46 571 38 579 -3 2 -106 -77 -229 -176z m154 -52 c-3 -51 -9 -97 -13 -101 -7 -8 -124 45 -134 61 -3 6 140 132 150 132 1 0 -1 -42 -3 -92z" />
        <path
            d="M4227 9525 c-86 -58 -157 -107 -157 -110 0 -2 13 -11 28 -19 28 -14 31 -13 82 21 30 20 55 31 59 25 93 -146 257 -382 265 -382 6 0 20 7 30 15 19 14 14 22 -96 187 -63 95 -122 185 -132 200 l-18 27 51 33 c46 30 51 37 51 71 0 20 -1 37 -3 37 -1 0 -73 -47 -160 -105z" />
        <path
            d="M9786 9544 c-15 -40 -6 -61 44 -96 l50 -35 -135 -191 c-74 -105 -135 -195 -135 -199 0 -4 11 -16 25 -25 l24 -18 125 178 c68 97 131 186 139 196 14 19 16 18 63 -16 l49 -36 33 17 c40 20 45 14 -108 121 -58 41 -119 84 -136 97 -28 21 -32 22 -38 7z" />
        <path
            d="M7548 6600 l-3 -2666 -209 1066 c-400 2039 -835 4242 -838 4245 -5 4 -227 -38 -365 -70 l-123 -29 0 -2963 0 -2963 133 0 c72 0 183 3 244 7 l113 6 2 1733 3 1733 138 -707 c176 -903 540 -2757 541 -2759 1 0 193 -4 429 -8 l427 -8 0 2981 0 2982 -22 5 c-63 15 -351 67 -405 74 l-63 7 -2 -2666z" />
        <path
            d="M3757 9174 l-28 -24 20 -122 c11 -67 19 -123 18 -125 -2 -1 -58 12 -124 30 l-122 31 -26 -24 c-14 -13 -22 -27 -18 -31 5 -3 74 -23 155 -44 138 -35 147 -40 152 -64 3 -14 15 -84 27 -156 11 -71 21 -131 22 -132 1 0 15 9 30 21 l28 22 -16 100 c-8 54 -18 111 -21 125 l-5 27 126 -31 125 -31 27 26 c31 32 45 25 -141 72 -77 20 -141 38 -144 40 -2 3 -15 72 -28 153 -14 81 -25 151 -27 155 -1 3 -15 -4 -30 -18z" />
        <path
            d="M10224 8933 c-88 -98 -169 -189 -181 -204 l-22 -26 23 -22 22 -21 150 167 c82 92 164 184 181 204 l33 36 -24 22 -23 22 -159 -178z" />
        <path
            d="M5520 9007 c-36 -17 -110 -53 -165 -80 -55 -27 -136 -68 -180 -93 l-80 -45 3 -2297 c2 -1263 1 -2294 -2 -2291 -3 2 -167 749 -365 1659 -480 2206 -490 2253 -495 2257 -5 6 -207 -230 -274 -321 -410 -549 -692 -1177 -811 -1806 -99 -517 -81 -1109 49 -1645 101 -412 268 -803 499 -1162 54 -85 25 -80 301 -58 102 8 200 15 218 15 l32 0 0 64 c0 63 -1 65 -74 172 -205 303 -369 666 -459 1020 -71 275 -100 468 -117 766 -34 591 90 1191 356 1710 l29 57 73 -337 c41 -185 222 -1019 403 -1852 182 -833 333 -1526 335 -1540 l5 -25 390 16 c214 8 391 18 394 21 10 10 19 5828 9 5827 -5 0 -38 -14 -74 -32z" />
        <path
            d="M8450 6126 l0 -2914 48 -6 c26 -3 140 -8 254 -12 l208 -6 2 1623 3 1623 129 -594 c283 -1308 584 -2681 588 -2686 4 -3 539 -43 595 -44 14 0 97 132 179 285 359 671 521 1371 492 2126 -30 782 -289 1522 -752 2144 -100 134 -268 334 -331 395 l-47 45 7 -400 7 -400 90 -150 c104 -174 256 -479 321 -645 165 -419 234 -884 207 -1385 -17 -328 -49 -535 -120 -787 -46 -160 -131 -380 -204 -526 l-51 -102 -454 2062 c-249 1135 -501 2278 -559 2540 l-105 478 -106 59 c-161 89 -373 191 -398 191 -2 0 -3 -1311 -3 -2914z" />
        <path
            d="M10584 8689 c-55 -16 -127 -72 -159 -123 -41 -68 -48 -177 -15 -254 79 -183 317 -226 457 -83 104 105 101 284 -6 391 -71 71 -179 98 -277 69z m176 -80 c126 -63 157 -215 67 -325 -82 -99 -244 -97 -328 5 -42 51 -54 103 -41 169 30 144 173 216 302 151z" />
        <path
            d="M3121 8529 c-56 -68 -100 -129 -99 -135 2 -6 95 -87 207 -179 167 -137 205 -165 215 -154 34 37 196 239 196 243 0 3 -14 9 -32 14 -31 8 -34 6 -108 -84 l-76 -92 -67 55 -67 54 71 87 71 86 -22 18 c-12 10 -25 18 -29 18 -4 0 -36 -36 -72 -80 -35 -44 -67 -80 -72 -80 -11 0 -125 93 -126 103 -1 5 31 46 69 92 71 85 80 107 57 139 -13 17 -22 8 -116 -105z" />
        <path
            d="M2772 8055 c-7 -14 -12 -28 -12 -30 0 -2 70 -46 155 -97 84 -51 153 -93 152 -95 -2 -1 -106 -18 -232 -38 -127 -19 -234 -37 -240 -38 -5 -2 96 -67 225 -145 l235 -141 18 21 c10 12 16 26 14 32 -2 6 -73 52 -157 103 -149 89 -152 92 -119 98 19 3 128 20 243 38 154 24 205 35 195 43 -20 16 -434 263 -451 269 -9 4 -19 -4 -26 -20z" />
        <path
            d="M11038 7942 c-126 -75 -228 -142 -228 -148 0 -5 6 -19 14 -29 13 -18 21 -14 167 73 84 50 155 90 156 88 2 -2 -32 -104 -75 -227 -44 -123 -78 -225 -77 -227 2 -3 455 266 466 277 4 3 -1 18 -10 33 l-17 26 -154 -93 c-85 -51 -156 -92 -158 -91 -2 3 121 361 147 429 6 15 7 27 3 27 -4 -1 -109 -62 -234 -138z" />
        <path
            d="M6495 3134 c-1913 -24 -3878 -182 -5817 -466 -409 -60 -427 -63 -423 -83 15 -75 15 -75 38 -70 61 14 885 131 1267 179 3651 462 7330 461 10975 -5 259 -33 646 -86 860 -118 215 -32 393 -56 396 -52 4 3 9 24 11 46 l5 40 -426 63 c-1696 250 -3476 406 -5131 451 -401 11 -1392 20 -1755 15z" />
        <path
            d="M6668 2852 l-408 -2 0 -137 0 -136 145 6 c80 4 146 5 147 4 1 -1 5 -290 8 -642 l5 -640 134 -3 133 -3 -7 646 -7 645 141 0 142 0 -3 132 c-2 78 -7 132 -13 132 -5 1 -193 0 -417 -2z" />
        <path
            d="M7246 2199 c-3 -360 -9 -709 -12 -775 l-7 -121 269 -5 c152 -3 292 -1 323 4 87 15 148 63 192 148 22 41 24 62 31 260 9 308 11 900 2 935 -11 44 -47 98 -90 133 -68 56 -101 62 -415 69 l-286 6 -7 -654z m497 370 c14 -6 30 -22 36 -36 14 -31 5 -884 -10 -924 -15 -39 -49 -49 -164 -49 l-104 0 5 408 c2 224 7 453 10 510 l6 102 98 0 c55 0 110 -5 123 -11z" />
        <path
            d="M5863 2633 c7 -236 2 -260 -67 -321 -44 -39 -59 -40 -103 -6 -66 50 -76 85 -84 312 -4 112 -9 205 -12 208 -3 3 -62 2 -131 -2 l-126 -7 1 -101 c1 -201 15 -358 38 -418 28 -72 83 -147 145 -195 l47 -37 -56 -55 c-66 -65 -121 -168 -135 -256 -7 -38 -7 -139 -3 -270 l8 -210 28 1 c15 0 74 1 132 2 l104 2 -6 208 c-3 114 -3 225 1 246 8 44 83 126 115 126 29 0 91 -59 112 -105 14 -32 19 -82 25 -252 l7 -213 87 0 c48 0 108 3 133 6 l45 6 -4 177 c-7 240 -17 319 -54 395 -33 71 -94 145 -144 176 l-34 20 58 58 c62 62 98 124 124 211 17 58 22 260 9 419 l-6 82 -130 0 -130 0 6 -207z" />
        <path
            d="M8365 2797 c-62 -31 -108 -78 -136 -141 -24 -55 -26 -91 -50 -787 -14 -417 -14 -422 63 -505 73 -79 104 -86 425 -97 156 -6 286 -7 290 -3 4 4 9 63 11 131 l4 125 -33 0 c-19 0 -128 5 -243 10 -196 8 -210 10 -232 31 -19 18 -24 33 -24 73 l0 51 167 -6 c93 -4 213 -7 269 -8 l101 -1 6 128 c3 70 4 128 3 129 -1 1 -121 7 -266 13 -146 6 -266 13 -269 15 -9 10 16 541 27 562 16 30 59 39 170 35 l94 -3 -7 -254 -8 -254 129 -3 c71 -2 130 -3 131 -3 1 0 6 133 12 295 6 162 13 334 16 381 l6 87 -33 5 c-18 3 -154 9 -303 12 l-270 6 -50 -24z" />
        <path
            d="M4961 2803 l-84 -4 7 -147 c4 -81 9 -181 13 -222 l6 -75 -71 85 c-115 138 -279 269 -387 309 -46 17 -69 19 -179 14 -70 -3 -128 -9 -130 -12 -6 -10 79 -1529 86 -1536 3 -3 63 -3 132 1 l126 7 0 31 c-1 17 -16 297 -34 621 -18 325 -32 592 -30 594 8 9 136 -94 199 -160 115 -121 194 -253 255 -424 47 -134 68 -250 81 -450 6 -99 12 -181 13 -183 2 -1 61 1 131 5 l129 8 -3 60 c-4 119 -70 1322 -77 1403 l-6 82 -46 -2 c-26 -1 -85 -4 -131 -5z" />
        <path
            d="M9360 2767 c-52 -17 -134 -103 -153 -162 -12 -35 -22 -152 -37 -394 -24 -411 -23 -419 64 -507 64 -63 112 -79 264 -89 111 -8 115 -10 92 -70 -18 -47 -55 -53 -248 -42 -95 5 -175 8 -178 5 -3 -3 -8 -62 -12 -131 l-7 -126 95 -7 c52 -4 172 -8 265 -8 189 -1 204 3 269 70 57 59 75 111 86 243 4 65 5 134 1 152 -27 119 -96 163 -276 174 -175 11 -171 0 -150 332 19 307 17 303 123 303 58 0 62 -2 62 -22 0 -13 -7 -131 -15 -262 -8 -132 -13 -242 -10 -245 9 -8 249 -20 256 -13 6 7 52 783 47 787 -7 6 -341 25 -418 24 -47 -1 -101 -6 -120 -12z" />
        <path
            d="M5820 1104 c-1699 -56 -3369 -205 -4910 -437 l-346 -52 8 -44 c4 -24 9 -45 10 -46 2 -2 167 22 368 51 1036 154 2232 283 3260 353 1003 69 1748 93 2820 93 1071 0 1813 -24 2820 -92 1019 -70 2218 -200 3260 -354 201 -29 366 -53 368 -51 1 1 6 22 10 46 l8 44 -351 52 c-1593 239 -3212 382 -4960 438 -573 18 -1798 18 -2365 -1z" />
    </g>
</svg>