<svg preserveAspectRatio="none" xmlns="http://www.w3.org/2000/svg" viewBox="0 0 100 1000" fill="#FFFFFF">
  <g>
    <path
      d="M38 168zM38 99h-1 1zM39 99a1 1 0 00-1 0h1zM29 172l-1-1a2 2 0 000 1 2 2 0 001 0zM35 229h-1 0a6 6 0 00-1 0h2zM37 271s-1 0 0 0h-1 1a3 3 0 01-1 0 6 6 0 00-1 0h2z"
      fill-rule="evenodd"></path>
    <path
      d="M38 10l-1 1a6 6 0 012 1h-1-1c1 0 1 0 0 0a3 3 0 01-1 0l-1 2h0 0a19 19 0 012 0h-2l1 1h0-1 5l-1 1c0 1 0 0 0 0a4 4 0 011 0 3 3 0 011 0v1h1a6 6 0 01-1 0h-1a6 6 0 01-1 0 1 1 0 010 1 7 7 0 001 0s-1 0 0 0a10 10 0 011 0h1a4 4 0 01-1 0h-2a3 3 0 01-2 1 6 6 0 01-1 0l1 1h-1l-2 1h1v1 1h-1-2v1h-1c-1 0 1 1-1 1a3 3 0 011 0 4 4 0 01-1 0c-3 0 1-1 0-1a1 1 0 000-1v1l-1-1v1a1 1 0 010-1c1 0 0 0 0 0a4 4 0 011 0h1v-1-1h-3-2a2 2 0 01-1 1h-1v1h1a3 3 0 01-1 0h1c1 0 0 0 0 0v1h1-1 1a1 1 0 011 1h-1a4 4 0 01-1 0l2 1h-1a4 4 0 00-1 0h1v1a5 5 0 011 0h-1a14 14 0 001 1 2 2 0 011 0h-1l5 2v1l1-1 1 1v-1 1h-1c-1 0 1 0 0 0a2 2 0 01-1 0s-1 0 0 0a2 2 0 00-1 0c-1 1-2 0-1 2s5 3 5 4v3l3 4a5 5 0 002 3c1 1 3 1 3 3v5l-1 4c1 0 1 0 0 0 0 1 1 1-3 3a17 17 0 013 0h-3a6 6 0 01-1 0h2v1c0 1 0 0 0 0a5 5 0 01-1 0 6 6 0 012 0h-1a3 3 0 011 0l1 1h1a6 6 0 01-2 0 24 24 0 01-5 0 2 2 0 00-1 2h1l1 1c0 1 0 0 0 0l-2 1h1l-1 1v1c0 1 1 0 0 0a4 4 0 01-1 0 19 19 0 000 2 11 11 0 012 1v-1h3v1l-3 1-1 2a2 2 0 01-1 0v-1 1a5 5 0 012 0l-2 1h1v1l-1-1v1a3 3 0 012 0s-1 0 0 0a1 1 0 011 0h1l1 1-1-1-1 1h1s2 1 0 1c-1 0 1-1-1-1l-1 1h-1 0a1 1 0 010 1h1s-1 0 0 0h0v1h1c2 0-1-1 1-1v1h1-1 1l-1 1h0-1a4 4 0 001 0h1a1 1 0 011 0h-2a13 13 0 01-1 0v1h1c-1 0 1 0 0 0a5 5 0 01-1 0h1l1 1h2-1a4 4 0 00-1 0v1h-1 1a1 1 0 001 0h1l-1 1h4l-1 1h-1-1 1l2 1h0-2 2l1 1h0a3 3 0 01-1 0l2 1h2a6 6 0 01-1 0 6 6 0 012 1h2a6 6 0 01-2 0 25 25 0 01-4 0h-2a2 2 0 01-1 0v1a3 3 0 010 1h-1a9 9 0 01-1 0 17 17 0 013 0h-1 2l2 1h-1l-2 1h1v1l-1 1c-1 1 1 0 0 0h-2v1h-1c-1 0 1 1-1 1a2 2 0 011 0h-1a15 15 0 002 1 4 4 0 011 0h-1l4 1 3 2c1 1 4 3 4 5a4 4 0 01-2 3l-2 2c0 1 3 0 4 2s3 1 4 3l3 3a3 3 0 011 0c1 1-1 1-1 1h-1a4 4 0 011 0l1 1h-1 2s-1 0 0 0c0 0 1 0 0 0 0 1-2 0-1 1h1l2 1-3-1v1h-1l3 1h-3 1l-1 1-1-1v1h1a6 6 0 001 1l2 1-1 1-1-1v1a5 5 0 012 2l1 3h1a11 11 0 012-1 15 15 0 012 1 8 8 0 012 0l1 1h-2l1 1-1 1v-1h-2 1v1a8 8 0 01-2 0h1v1h2a3 3 0 01-2 0 11 11 0 003 1c2 1 5 3 3 4l-7 4c0 1-10 2-9 3l-5 3h1a8 8 0 01-2 0l1 1a6 6 0 01-2 0l-2 1 3-1 1 1h1l-2 1h5c1 1 4 1 3 2l-2-1-1 1-1-1-1 1a1 1 0 01-1 0l3-1a7 7 0 00-2 0 4 4 0 00-1 0c-1 0 0 0 0 0 0 1-4 1-2 2l1-1a4 4 0 011 0 5 5 0 012 1v1h1a7 7 0 01-3 0v-1a4 4 0 00-1 0v1a8 8 0 01-3 1 4 4 0 01-1 0l-3-1h-2l-3 1h1-1l2 1h-2a3 3 0 011 0 3 3 0 011 0v1h2l-2 1h1l1 1h-2l-1 1a8 8 0 01-1 0h-1v-1a8 8 0 01-1 0 5 5 0 01-1 0h1a1 1 0 011 0h1l-2-1h2-2-1a3 3 0 01-1 0l-1 1a1 1 0 011 0l2 1s1 0 0 0v1a13 13 0 013 0h-3v1a12 12 0 011-1v1a4 4 0 01-1 0 7 7 0 011 0l3 1a9 9 0 01-2 0h2a6 6 0 01-2 0 3 3 0 01-1 0 3 3 0 003 1l2-1a14 14 0 01-3 1s1 0 0 0l-1 1h1a3 3 0 011 0 6 6 0 01-1 0 4 4 0 01-1 0h-1s5 0 4 1h-4-1-2a2 2 0 011 0h1a5 5 0 01-1 0v1h1a7 7 0 012 0h1v1h1-4l-1-1v1s2 0 1 1h-2a3 3 0 01-2 1 7 7 0 011 3c1 5-1 4-2 4h-1a5 5 0 000 1 15 15 0 01-2 1 2 2 0 000 1c1 0 0 0 0 0h5l-1 1h2l-2 1-2-1c-2 0 1 1 1 1a5 5 0 01-2 0c-1 0 1 0 0 0a3 3 0 00-2 0c-1 0 1 1-1 1a1 1 0 01-1 0l1-1-3 1a9 9 0 01-3 0l-1-1h4l2-1h-1-2a46 46 0 01-4 1c-1 0-2 0-1 1l1 1h1a18 18 0 012 0 3 3 0 012 0c1 1-1 1-1 1l1 1h-1v1c-3 0 0-2-2-1a7 7 0 00-1 0 9 9 0 002 1 10 10 0 013 0l-3 1h1a4 4 0 001 0h-1 3l1-1-1-1h4-4c-2-1-1-1 0-2h1c5 0 5 2 5 3h-1-1v1h1l1 2 1 1h0l2 1h-2-1l4 1a2 2 0 011 0c1 0 3 0 2 1a3 3 0 01-1 0l5 1a21 21 0 003 3l-2 4c0 1 2 1-1 2s-8 0-9 1-2 2-1 4l3 2c3 1 4 2 4 4s-1 3-4 4h1a4 4 0 01-1 0 2 2 0 00-1 0h-2a9 9 0 011 0v1s1 0 0 0l-1-1v1h-1 0-1l2 1h2a5 5 0 01-1 0 6 6 0 012 1h2a6 6 0 01-2 0 24 24 0 01-4 0h-1v1l-1 1h1l2 1h-1l-2 1a7 7 0 011 0v2l6 5-6 4-7 5-2 4v1c1 0 0 0 0 0h1-1 0l-1 1 1 1a3 3 0 01-1 0h1a10 10 0 002 0 3 3 0 011 0v1h0l3 1s2 0 0 0h-2a6 6 0 01-1 0h-1-1v1a4 4 0 011 0 2 2 0 01-1 0h2l1 1 1-1c2 1-1 1-2 1 0 0 1 0 0 0h1v1c2 0-1-1 1-1 1 0 0 0 0 0l1 1c0 1 0 0 0 0h-1 0v1l2-1a1 1 0 010 1h-1-1 1a2 2 0 01-1 0 5 5 0 011 0h-1v1h1l1 1h0-1 3c1 0 0 0 0 0h-3 1a1 1 0 000 1h0l5 1h-1c-1 0 0 0 0 0h-1l-2 1h4v1l-3-1h1-1l4 1h-1-1 2l-1 1-1-1 1 1h3a5 5 0 01-1 0 6 6 0 012 1 3 3 0 011 0h1a6 6 0 01-1 0 24 24 0 01-5 1h-2a3 3 0 01-1 0s1 0 0 0a11 11 0 012 1l1 1h1v1a4 4 0 01-1 0l1 1v2l1 1v1l5 1h-2l-1-1 1 1 1 1s-1 0 0 0h2l-2 1h1l2 1-3-1v1l2 1h-2 1l-2 1-1-1 1 1c1 0 0 0 0 0a6 6 0 001 1l3 1-2 1v-1l-1 1h1v1l1 1h-2l-2-1v1h-1l-1-1v2a2 2 0 011 1l1 1-1-1a1 1 0 000 1 7 7 0 010 1 12 12 0 000 4 6 6 0 010 2 6 6 0 012 1h2a4 4 0 002 0l1-1a6 6 0 012 1s1 0 0 0h-3l1 1h0l1 1-2 1h-1v1s1 0 0 0h-1l1 1h-1l1 1a12 12 0 00-2 0h-1v2l-5 2h-1l-1 1 1-1-4 1h2l3 1h-3l2 1a7 7 0 01-3-1h-4a3 3 0 011 0h1v1h-1 5v1h1s-3 1-1 1l2-1v1h2l3 1h-3c-1 0 0 0 0 0h-1a1 1 0 01-1 0c-1 0 3 0 2-1a8 8 0 00-2 0 5 5 0 00-1 0v1l-2 1h1a4 4 0 012 0 5 5 0 012 1v1h1a7 7 0 01-3-1l-1-1a4 4 0 00-1 1c-1 0 0 0 0 0v1a8 8 0 01-3 0v1l-1 6 1 4v2h27-27c7 4 7 10 7 10l-1 1a6 6 0 012 0h-2v1a3 3 0 01-1-1l-1 2h-1 1v1l-1-1v1a19 19 0 012 0h-1 0 1a4 4 0 01-1 1l-1-1 1 1h2c1 0 0 0 0 0h2c1 0 0 0 0 0h-1a4 4 0 012 1h-1a3 3 0 011 0h1a6 6 0 01-1 0 6 6 0 01-1 0 2 2 0 01-1 1 7 7 0 001 0c1 0-1 0 0 0a10 10 0 012 0v1-1h-3a3 3 0 01-2 1 7 7 0 01-1 1h1l-2 1 1 1h-1v2h-3 0c-2 0 1 1-1 1a4 4 0 01-1 0c-2 0 1-1 1-1a1 1 0 00-1 0 1 1 0 01-1 0h1v-1h-1a4 4 0 011 0h1l1-1h-1 1v-1c0-1 1 0 0 0h-3l-1 1h-4 1v1a3 3 0 01-1 0h2v2a1 1 0 011 0c1 0 0 0 0 0h-1 1-1 0a3 3 0 01-1 0h1-1l1 1h0v1c1 0 0 0 0 0h1a5 5 0 011 0h-1a13 13 0 001 2l4 2h3c1 0 0 0 0 0h-1v1h-1s1 0 0 0h-1 1v-1a2 2 0 00-1 0c-1 2-2 1-1 3s5 2 5 3v4l2 4a5 5 0 002 3l4 2v5l-1 5-3 2-1 1a17 17 0 013 0h-4 2a6 6 0 01-1 0 6 6 0 012 1 3 3 0 011 0h1a6 6 0 01-1 0h-1a24 24 0 01-4 0h-1a2 2 0 00-1 2h1l2 1h-1l-2 1 1 1c0 1 0 0 0 0v1l-1 1a4 4 0 01-1 0v2a11 11 0 012 0h3v1h-2l-1 2a2 2 0 01-1 0h-1a5 5 0 012 1h-2l1 1h-1a2 2 0 001 0h-1 1a3 3 0 011 0v1a4 4 0 001 0 1 1 0 011-1v1h-1 2c1 0 2 1 0 1h-2a7 7 0 01-1 0 2 2 0 010 1h2l-2 1s1 0 0 0h2c1 0 0 0 0 0h1v1h-1 0-1a3 3 0 001 1l2-1-1 1h-1 1a13 13 0 01-2 0h1v1s0-1 0 0h2l1 1h-2 1a1 1 0 000 1h0l5 1h-4 2l1 1h-1 2-3 1-1l4 1h-1-1 1-1 1l1 1h2a5 5 0 01-1 0 6 6 0 012 1 3 3 0 011 0h1a6 6 0 01-1 1 24 24 0 01-5 0h-2v1h-1 1a2 2 0 01-1 0 9 9 0 01-1 1 17 17 0 012 0h-1 2a1 1 0 011 0h1v1l-3 1h1v2h-3l1 1h-2a14 14 0 001 1 4 4 0 011 0h-1l4 2 4 2c2 2 4 3 3 4a4 4 0 01-2 3l-1 2 3 2c1 1 4 1 5 3l2 3a3 3 0 012 1h-2v1h2l1 1h-2 1c1 1 3 1 2 2s-2-1-3-1l2 1h-2l1 1h-2 0c1 0 0 0 0 0a7 7 0 001 1l3 1-2 1h-1l1 1a5 5 0 012 1l1 3a11 11 0 012 0 15 15 0 012 0 8 8 0 012 0l1 1-2 1h1s1 2-1 1l1-1h-2l1 1h-1a8 8 0 01-2 0l1 1 1 1h1a3 3 0 01-1 0 11 11 0 002 1c3 1 6 2 4 3l-8 4-9 4-4 2 1 1a8 8 0 01-2-1l-1 1h1a6 6 0 01-2 0l-1 1h3c1 0 0 0 0 0h1c0 1-2 1-1 2l2-1v1h2l3 1h-3c-1 0 0 0 0 0h-1a1 1 0 01-1 0l2-1a7 7 0 00-2 0 5 5 0 00-1 0h1c-1 1-5 2-3 2l1-1a4 4 0 012 1 5 5 0 012 1l1 1a7 7 0 01-3-1l-1-1a4 4 0 00-1 0v1a8 8 0 01-3 1 4 4 0 01-1 0l-2-1-2 1h-4l2 1h-2 2-1a3 3 0 010 1 3 3 0 011 0c1 0 0 0 0 0h2v1l-2 1h1l-1 1a8 8 0 01-2 0 8 8 0 01-1 0 5 5 0 01-1 0h1-1 1a1 1 0 010-1v1h1v-1h-1 1l-1-1h-2l-1 1v1h2a3 3 0 011 0v1l-1 1a13 13 0 013 0h-3 1a7 7 0 011 0l2 1a9 9 0 01-1 0h1a6 6 0 01-1 0h-1a3 3 0 002 1l2-1a14 14 0 01-2 1v1a4 4 0 01-1 0h-1 1c1 0 0 0 0 0a2 2 0 011 0h1a5 5 0 01-2 0 4 4 0 01-1 0h-1c0 1 6 0 5 1h-5-2-1 1c1 0 0 0 0 0l1 1a5 5 0 01-1 0h1a7 7 0 013 0v1c1 0 0 0 0 0h1-5l2 1h-2a3 3 0 01-3 2 7 7 0 011 3c1 4 0 3-2 4a4 4 0 00-1 0 14 14 0 01-2 2 2 2 0 001 0s-1 0 0 0h2c1 0-2 0-1 1l4-1c1 1-3 1-1 2h-1l-2-1c-1 1 2 1 1 2a5 5 0 01-2 0v-1a3 3 0 00-1 0l-1 2a1 1 0 01-1-1l1-1c-3 0-1 2-4 2a9 9 0 01-3-1l-1-1h5v-1h-2a54 54 0 01-3 1l-2 1 1 1h-1l1 1a3 3 0 001 0l3-1h-3a18 18 0 013 0 3 3 0 012 1l-1 1h0c0 1 1 1-1 1s1-1-1-1a6 6 0 00-2 0 9 9 0 002 2 10 10 0 013 0h-2l1 1a4 4 0 001-1h-1 2c2 0 1-1 1-1h-1 4l1-1h-4c-2 0-2-1 0-1l1-1c5 0 5 2 4 3v1l-1-1c-2 0 0 1 0 1l1 1 1 1 1 1h1l-2 1h-1c-1 0 0 0 0 0l5 2h3a3 3 0 01-1 0l5 2a22 22 0 002 3l-1 3c1 0 1 2-1 2s-9 0-10 2-2 2-1 3l3 3c3 2 4 1 4 3s-1 3-4 4h1a4 4 0 01-1 0s1 0 0 0l-2 1a9 9 0 011 0s1 0 0 0h-1-1l-1 1h4l-1 1a5 5 0 01-1 0 6 6 0 013 0h-1a4 4 0 011 0h1l1 1h-1a6 6 0 01-1-1 24 24 0 01-5 1h-1v1l1 1h1v1h-2v1a7 7 0 011 0h-1v1a2 2 0 000 1l6 4-6 5-6 5-3 4s1 0 0 0h0l1 1h-1v2l1-1c2 0-2 1-1 1a10 10 0 002 0 3 3 0 011 0h3v1h-2 2c1 0 2 1 0 1-1 0 1-1-1-1l-1 1h-1-1 1l-1 1h1v1h1c3 0 0 0 2-1v1h1-1 1c1 1-1 1-1 1h-1 1a1 1 0 01-1 0 2 2 0 001 0h1a1 1 0 011 0h-2v1c1 0 0 0 0 0v1h1c1 0 2 0 1 1v-1h-1v1h2-3 1a1 1 0 001 0h0v1h4l-1 1h-1s1 0 0 0l2 1h0s1 0 0 0h-3 3l1 1h0a3 3 0 01-1 0 1 1 0 00-1 0h3c1 0 0 0 0 0h2v1c0 1 0 0 0 0a6 6 0 01-1 0 6 6 0 012 0h-1a3 3 0 011 0l1 1h1a6 6 0 01-2 0 24 24 0 01-4 0h-2a3 3 0 01-2 0h1-1a11 11 0 012 2h1l1 1c0 1 0 0 0 0a3 3 0 01-1 0l1 2c1 0 1 0 0 0v2l1 1v1l5 1h-2v-1c-1 1 0 1 1 1v1h2l-2 1h1l3 1-3-1v1h-1l2 1h-2 1l-1 1-1-1v1a6 6 0 002 1l2 1-1 1-1-1v1c-1 0 0 0 0 0l1 1 1 1h-2l-2-1v1h-2v-1h-1l1 2a2 2 0 011 0v1h-1a6 6 0 010 1 11 11 0 000 4 6 6 0 010 3 6 6 0 012 0l2 1a4 4 0 002-1h1a6 6 0 012 0h1l-4 1h1l1 1-2 1v1h-1c-1 0 0 0 0 0h-1l1 1-1 1h1a12 12 0 00-2 0l-1 1 1 1-6 2v1h0l-5 1h5-3l2 1a7 7 0 01-3 0l-2-1h-2a4 4 0 011 1h2l-1 1 4-1 1 1h1l-2 1h2c1 0 0 0 0 0h3c1 1 4 1 2 2l-1-1-1 1-1-1-1 1a1 1 0 01-1 0l2-1a8 8 0 00-2 0 5 5 0 00-1 0h1c-1 1-4 1-3 2l2-1a4 4 0 011 0 5 5 0 012 2h1a6 6 0 01-3 0v-1a4 4 0 00-2 0l1 1a8 8 0 01-3 1 2 2 0 01-1 0v6l1 4v2h1c6 4 6 10 6 10l-1 1a6 6 0 012 0l-1 1h0-1 0l-2 1c1 0 1 0 0 0h1v1h-1a22 22 0 012 0h-1-1l3 1h-2l-1-1 1 1h3a4 4 0 012 1h-1a3 3 0 011 0h1a6 6 0 01-1 0 6 6 0 01-2 0 2 2 0 010 1h1c1 0-1 0 0 0a10 10 0 012 0v1a4 4 0 01-1 0s1 0 0 0h-2a3 3 0 01-2 1 7 7 0 01-1 0h1v1h-3l2 1h-1v1l-1 1h-2 0l-1 1a4 4 0 01-1 0c-2 0 1-1 1-1a1 1 0 00-1 0h-1c-1 0 1 0 0 0h0v-1a4 4 0 011 1l1-1 1-1h-1 1v-1h-1-2l-2 1h0-1-2 1a1 1 0 01-1 1h1-1c1 0 0 0 0 0h1a3 3 0 01-1 0h1l1 1a3 3 0 010 1 1 1 0 011 0c1 0 0 0 0 0v0h-1 0v1a3 3 0 01-1 0s1 0 0 0h1v1a5 5 0 012 0h-2a13 13 0 002 2l4 2h3c1 0 0 0 0 0h-1v1h-1s1 0 0 0h-1 1a2 2 0 00-1 0c-1 1-2 0-1 2s5 3 5 3v4l2 4a5 5 0 002 3c1 1 4 1 4 3v4l-1 5-3 2-1 1a17 17 0 013 0h-3 1a6 6 0 01-1 0 6 6 0 012 1 4 4 0 011 0h1a6 6 0 01-1 0h-1a25 25 0 01-4 1h-1a2 2 0 00-1 1l1 1h2l-1 1h-2l1 1v1l-1 1a4 4 0 01-1 0v2a11 11 0 012 0c1 0 0 0 0 0h3v1c0 1 0 0 0 0l-2 1-1 1a2 2 0 01-1 0h-1v1a5 5 0 012 0h-2l1 1h-1a2 2 0 001 0h-1 1a3 3 0 011 0v1a4 4 0 001 0 1 1 0 011 0h-1-1l3 1c1 1 2 0 0 0h-2a7 7 0 01-1 0 2 2 0 010 1s-1 1 1 1l1-1-2 1s1 0 0 0l1 1c2 0-1-1 1-1 1 0 0 0 0 0l1 1c0 1 0 0 0 0h-1 0l-1 1a4 4 0 001 0h1a11 11 0 01-2 0h1v1h1l1 1c0 1 0 0 0 0h0-1 0l1 1h0l5 1h-2l-2 1h4v1l-3-1h1-1l4 1h-1-1 2c1 1 0 1-1 1l-1-1 1 1h3a5 5 0 01-1 0 6 6 0 012 1 4 4 0 011 0h1a6 6 0 01-1 0 25 25 0 01-5 0h-2a2 2 0 010 1h-1v1a7 7 0 01-1 0 19 19 0 012 0h-1l1 1 1-1a1 1 0 011 0l1 1-3 1 2 1h-1v1l-1 1h-2c-1 0 0 0 0 0h0c-2 0 0 1-1 1a14 14 0 001 1 4 4 0 011 0h-1l4 1 3 2c1 1 5 4 4 5a4 4 0 01-2 3l-2 2c0 1 3 0 4 2s4 1 5 3l2 3a3 3 0 012 0l-2 1 1 1c0 1-1 0 0 0h2l-2 1h1l2 1-3-1v1l2 1h-2c0 1 1 0 0 0l-1 1-1-1v1h1a6 6 0 001 1l3 1c1 1-1 1-2 1v-1l-1 1a5 5 0 012 2c2 1 1 1 2 3a11 11 0 012-1 15 15 0 012 1 8 8 0 012 0l1 1h-2l1 1s1 1-1 1l1-1h-3 1v1a8 8 0 01-2 0h1v1h2a3 3 0 01-1 0 11 11 0 002 2c3 1 6 2 4 4l-8 3-9 4-4 2 1 1a8 8 0 01-2 0h-1c1 0 2 0 1 1a6 6 0 01-2-1l-1 1h3v1h1l-1 1 2-1v1h2l3 1h-3c-1 0 0 0 0 0h-1a1 1 0 01-1 0c-1 0 3 0 2-1a8 8 0 00-2 0 4 4 0 00-1 0l1 1-3 1h1a3 3 0 012 0 5 5 0 012 1v1h1a7 7 0 01-3-1l-1-1a4 4 0 00-1 1c-1 0 0 0 0 0v1a8 8 0 01-3 0 4 4 0 01-1 0l-2-1-2 1h-4l2 1h-2 2-1a1 1 0 000 1 3 3 0 011 0c1 0 0 0 0 0h2v1l-2 1h2l-1 1h-1a9 9 0 01-2 0h-1c-1 0 0 0 0 0a5 5 0 01-1 0h1-1 1c1 0 1 0 0 0h1v-1h-2 0-2a1 1 0 010 1l2 1a3 3 0 011 0l-1 1a13 13 0 013 0h-3a12 12 0 012 0h-1a7 7 0 011 1h2a9 9 0 01-2 0h2a6 6 0 01-2 0 3 3 0 002 1h2a14 14 0 01-2 1 4 4 0 01-1 0h-1 1c1 0 0 0 0 0a2 2 0 011 0l1 1a6 6 0 01-2 0 4 4 0 01-1-1c0-1 0 0 0 0h-1l5 1h-5-3a2 2 0 011 0c1 0 0 0 0 0l1 1a5 5 0 01-1 0h1a7 7 0 013 0v1l1 1-3-1h-1l-1 1h0a3 3 0 01-3 2 7 7 0 011 3c1 4 0 3-2 4a4 4 0 00-1 0 13 13 0 01-2 2 2 2 0 001 0s-1 0 0 0h2l-1 1h4c1 0-3 0-1 1h-3c-1 0 2 0 1 1a5 5 0 01-2 0v-1a3 3 0 00-2 1v1a1 1 0 01-2-1h1l-3 1a9 9 0 01-3 0l-1-1h2l2-1h1l-1-1-1 1a40 40 0 01-3 0h-1l-1 2 1 1a3 3 0 001 0h3l-3-1h2a3 3 0 012 1l-1 1h0v1l-2-1a6 6 0 00-1 0 9 9 0 002 2 10 10 0 013 0h-3l2 1a4 4 0 001-1h-1 2l1-1h-1 3l1-1h-3c-3 0-2-1 0-1l1-1c5 0 5 2 4 3v1l-2-1c-1 1 0 1 1 1l1 1 1 1 1 1h1l-2 1h-1c-1 0 0 0 0 0l5 2h2l4 2a22 22 0 003 3l-2 3s2 2-1 2-8 0-9 2-2 2-1 3l3 3c3 2 4 1 4 3s-1 3-4 4h1a4 4 0 01-1 0l-2 1a9 9 0 011 0c-1 0 0 0 0 0h-1a7 7 0 00-1 0h-1 1-1v1h4l-1 1a5 5 0 01-1 0 6 6 0 012 0 4 4 0 011 0h1l1 1h-1a6 6 0 01-1-1v1a25 25 0 01-5 0h-1v2h2v1h-2v1a7 7 0 011 0h-1v1a2 2 0 000 1l6 4-6 5-6 5-3 4s1 0 0 0h1a8 8 0 011 1h-2 0v2l1-1c2 1-2 1-1 1a9 9 0 002 0 3 3 0 011 0l1 1h2s1 0 0 0h0c1 0 2 1 0 1h-3-1v1h3l-2 1h4v1h-1-1 1a1 1 0 01-1 0 1 1 0 011 1l1-1a1 1 0 011 0l-1 1h-1c1 0 0 0 0 0v1h1v1c-1 0 0 0 0 0h1a4 4 0 00-1 0c-1 0 0 0 0 0h2l-3 1h1a1 1 0 001 0h0c-1 0-1 0 0 0l5 1h-1-1-1 1l-2 1h2 1l1 1-3-1c-1 0 0 0 0 0v1h3-1l2 1h-1a3 3 0 01-1 0v-1a1 1 0 00-1 0l1 1h2c1 0 0 0 0 0h2c1 0 0 0 0 0a6 6 0 01-1 0 6 6 0 012 1h2a6 6 0 01-2 0 25 25 0 01-4 1h-2a3 3 0 01-1 0c-1 0 0 0 0 0h-1a11 11 0 012 1l1 1h1v1a3 3 0 01-1 0l1 1v2l1 1v1l5 1h-2l-1-1 2 2h2l-2 1h1l3 1h-3c-1-1 0 0 0 0h-1l2 1h-2l1 1h-1l-1-1v1a6 6 0 002 1l2 1-1 1-1-1-1 1h1v1s2 0 1 1h-1l-2-1v1h-2v-1l-1 1 1 1a2 2 0 011 0v1h-1a6 6 0 010 1 11 11 0 000 4 6 6 0 010 3 6 6 0 012 0l2 1a4 4 0 002 0l1-1a5 5 0 012 0h1l-4 1h3l-2 1 1 1-2 1h-1c-1 0 0 0 0 0l1 1h-2 1l-1 1h1a12 12 0 00-2 0l-1 1 1 1-6 3h-1l-4 1h5-3l2 1a7 7 0 01-3 0l-2-1h-1l-1 1a3 3 0 011 0h1v1l4-1 1 1h1l-2 1h2c1 0 0 0 0 0h3c1 1 4 1 2 2l-1-1-1 1-1-1-1 1a1 1 0 01-1 0l2-1a8 8 0 00-2 0 4 4 0 00-1 0h1c-1 1-4 1-3 2l2-1a3 3 0 011 1 5 5 0 012 1h1a7 7 0 01-3 0v-1a4 4 0 00-2 0l1 1a8 8 0 01-3 1 3 3 0 01-1 0v7l1 3-1 3h72L101 1H31c7 4 7 9 7 9zm-9 12v-1 1zm-2 0zm2 0h0zm-5 0h0zm5 0h0zm-1 1v-1l1 1h-1zm-1 0h-1 1s1 0 0 0v1l1-1-1 1a1 1 0 010-1zm0 1h-1 1c-1 0 0 0 0 0zm-7 167h0zm1 0zm6 164h0zm-2 0h1-1zm3 0h-1 1zm-5 0v1c0 1 0 0 0 0v-1zm4 1h0zm0 0c-1 0-1 0 0 0a2 2 0 01-1 0h1zm-2 1h-1a2 2 0 011 0h1s-1 0 0 0a1 1 0 01-1 0zm0 0h-1 1v0zm-7 167h0zm1 1l1-1-1 1zm8 163h0zm-2 0h1-1zm3 1h-1l1-1zm-5 0zm4 0h0zm0 0c-1 0-1 0 0 0a2 2 0 01-1 0h1zm-2 1h-1a2 2 0 011 0h1s-1 0 0 0a1 1 0 01-1 0zm0 1l-1-1h1v1zm-7 167l1-1-1 1zm1 0h0zm32 130l-1 1 1-1c1 0 0 0 0 0zm-2-1l-1 1a3 3 0 01-1 0l2-1zm7-8v1-1zm-6-5h0zm-6-1l1 1h-1c-1 0 1 0 0 0s-2 0-1-1a3 3 0 011 0zm4 0h0zm0-2a1 1 0 01-1 0v-1l1 1zm2-1l-1 1 1-1zm-13-3a2 2 0 011-1h1l1 1h1-4zm4 1a1 1 0 01-1 0h-1l1-1a3 3 0 011 1zm5-2l-1 1h2a3 3 0 01-1 1h-2l1-1h-1c0-1 1-2 2-1zm-5 0l1 1h-1a3 3 0 01-1-1l-1-1 2 1zm8-1a3 3 0 01-2 0h2zm-3-1v1c-1 0 0-1 0 0zm10-2l1 1 2 1h-2-3s3 0 2-1v-1zm-4 0a7 7 0 012 1c1 0 1 0 0 0h-1l-1 1-1-1h2l-1-1h-1c-1-1 0 0 0 0h1zm6-1l-1 1 1-1zm-4 0h2a2 2 0 01-1 1l-2-1h-1a3 3 0 012 0zm-11 0h3a15 15 0 012 0 8 8 0 012 0l1 1h-2l1 1-1 1v-1h-2l1 1h-1-2l-1 1 1-1h-2l-1-1h-1-1l-1-1h-2v-1h1a3 3 0 001 0h2v1h2l-1-1v-1l1 1zm9-5h0zm-18-14l1-1v1a1 1 0 01-1 0zm8 0h1a6 6 0 011 0h-1-1zm-3 0h-1 1zm-2-1a18 18 0 013 1h-3a4 4 0 01-1-1h1zm2-1a3 3 0 011 0v1a6 6 0 01-1 0v-1zm-3 0a7 7 0 011 0v0h-1zm3 0h1a4 4 0 01-1 0h-2a5 5 0 01-1 0 11 11 0 012 0l-1-1a9 9 0 012 1zm2-3h1a8 8 0 011 1h-1l-1-1zm-3 0h-1 1zm-2 0a17 17 0 013 0h-3a4 4 0 01-1 0h1zm2-1a3 3 0 011 0 6 6 0 01-1 0c-1 0 0 0 0 0zm-3 0a7 7 0 011 0c1 0 1 0 0 0 0 0 1 0 0 0h-1zm3-1h1a4 4 0 01-1 0c-1 0 0 0 0 0h-2a5 5 0 01-1 0h1c1 0 0 0 0 0a9 9 0 012 0zm-8-2h1s-1 0 0 0h1l-1 1-1-1zm8 1h1-2 1zm-4-1a8 8 0 013 0h-1l1 1-2-1v1l-1-1a9 9 0 011 0c1 0 0 0 0 0h-1zm-1-1l1 1a6 6 0 01-1-1s-1 0 0 0zm1-3h-1a7 7 0 011 0zm-8-2h1s1 0 0 0h-1l-1-1 1 1zm6-27h1a1 1 0 01-1 0zm8 0a8 8 0 011 1c1 0 0 0 0 0l-1-1zm-3 0h-1 1zm-2 0a17 17 0 013 0h-3a4 4 0 01-1 0s-1 0 0 0h1zm2-1c1 0 0 0 0 0h1a6 6 0 01-1 0c-1 0-1 0 0 0zm-3 0a9 9 0 011 0s1 0 0 0h-1zm3-1s1 0 0 0h-2a5 5 0 01-1 0h1c1 0-1 0 0 0a9 9 0 012 0zm11-1a4 4 0 01-1 0l1-1zm-9-1a10 10 0 011 0c1 0 0 0 0 0h-1zm-3 0h-1 1zm-2-1a17 17 0 013 0h-3a4 4 0 01-1 0c-1 0-1 0 0 0h1zm2-1h1a6 6 0 01-1 0c-1 0-1 0 0 0zm1-12l2 1-2-1zm16-6c1 0 0 0 0 0h-2 2zm-8-1v1-1zm-3-9l-3 1 3-1zm-8-5l-1 1 1-1zm1 1l1-1h1l-2 1zm2-3l-3 1h1a8 8 0 01-2 1l1-1v-1c1-1 3 0 3 1zm0-1l-1 1v-1h-2a12 12 0 013 0zm-2-1l1 1-2-1h-1a6 6 0 012 0zm2-9a4 4 0 01-2 0h-1v-1l3 1zm5-2h-1 1zm-5 0c1 0 0 0 0 0h-1l-1 1 3-1zm5-5h1a8 8 0 011 0h-2zm-3 0c1 0 0 0 0 0-1 0 0 0 0 0zm-2-1a16 16 0 013 1h-3a4 4 0 01-1-1h1zm6-1h0zm-2-3h1a8 8 0 011 1l-2-1zm-3 0h-1 1zm6 0a10 10 0 01-3 0l1-1 2 1zm-6-1l-2-1 2 1zm0 0a3 3 0 011 0h1a6 6 0 01-2 0zm32-5h-1l1-1zm-2-1h-1a3 3 0 01-2 0h3zm6-8h0zm-5-6l-2 1 2-1zm-3-1l1 1-1-1zm4-8v-1l1-1c0-1 1 0 0 0h-1 1a7 7 0 012 0v1l-1-1-1 1c-1 0 0 0 0 0l-1 1zm6-1h-3 2v-1l1 1zm4-2l-1 1 1-1zm-3 0h-1 1zm-4-1v1h2a2 2 0 01-2 0h-1-1a3 3 0 012-1zm-2-5l1 1-1-1zm-31-30zm4-5h1a1 1 0 01-1 0zm8 0a8 8 0 012 1h-1l-1-1zm-3 0h-1 1zm-2 0a16 16 0 013 0h-3a4 4 0 01-1 0h1zm2-1c1 0 0 0 0 0h1a6 6 0 01-1 0c-1 0 0 0 0 0zm-3 0a7 7 0 011 0c1 0 1 0 0 0h-1zm3-1s1 0 0 0h-2a5 5 0 01-1 0h1c1 0-1 0 0 0a9 9 0 012 0zm2-2a8 8 0 011 0c1 0 0 0 0 0h-1zm-3 0h-1 1zm-2-1a16 16 0 013 0h-3a4 4 0 01-1 0c-1 0-1 0 0 0h1zm2-1h1a6 6 0 01-1 0c-1 0-1 0 0 0 0 0-1 0 0 0zm-3 0a9 9 0 011 0s1 0 0 0h-1zm3-1v1a4 4 0 01-1 0v-1h-1a5 5 0 01-1 0h1c1 0-1 0 0 0a9 9 0 012 0zm-8-2v1c1 0 0 0 0 0h1l-1-1zm8 1h0-1zm-4-1a8 8 0 012 1c1 0 0 0 0 0h-2a2 2 0 011 0h-1c-1 0-1 0 0 0l-1-1a9 9 0 012 1v-1h-1zm-1 0h1a6 6 0 01-1 0c-1 0-1 0 0 0zm1-4h-1s-1 0 0 0a7 7 0 011 0zm-1-1l-1 1 1-1zm-7-1h1v1l-2-1s-1 0 0 0h1zm8-2a10 10 0 01-3 0l1-1 2 1zm-6-1c-1 0-3 0-2-1s2 1 2 1zm-1-1c1 0 0 0 0 0zm-1-1h-1a7 7 0 012 0h-1zm4-1l-1 1h-1l2-1zm1 0h-1a1 1 0 011 0zm-1-1h-1-1a2 2 0 012 0zm-4-6v-1h1l-1 1zm8 0a6 6 0 011 0h-1zm-4 0c1 0 0 0 0 0zm-2-1a16 16 0 014 1h-3a4 4 0 01-2-1h1zm3-1l1 1a6 6 0 01-2 0l1-1c1 0-1 0 0 0zm-3 0a7 7 0 011 0v1-1h-1zm2 0h1a4 4 0 01-1 0h-1a5 5 0 01-1 0 11 11 0 011 0v-1a9 9 0 011 1zm3-3a8 8 0 011 1l-1-1zm-4 0c1 0 0 0 0 0-1 0 0 0 0 0zm0-1a3 3 0 011 0h1a6 6 0 01-2 0zm-11-32v-1 1zm-1-2l-1 1a2 2 0 010-1 7 7 0 011 0zm2 0zm-2 0v-1 1zm2 0l-1-1 1 1zm-4-1c-1 0-1 0 0 0zm1 0c-1 0 0 0 0 0zm4 0c1 0 0 0 0 0zm-2-1v0c0-1-1 0 0 0zm-1 0h-1 1zm4 0h0zm-2 0zm-3 0h-1c-1 0 0 0 0 0a1 1 0 011 0zm0-1s1 0 0 0a2 2 0 01-1 0h1a3 3 0 001 0h-1a2 2 0 011 0h-1 1a2 2 0 01-1 1v-1zm-1 1a4 4 0 011 0 4 4 0 01-1 0zm6 0zm4-5v-1h1v1a1 1 0 01-1 0zm8 0a6 6 0 011 0c1 0 0 0 0 0h-1zm-3 0h-1 1zm-2-1a18 18 0 013 1h-3a4 4 0 01-1-1c-1 0-1 0 0 0l1 1zm2-1c1 0 0 0 0 0l1 1a5 5 0 01-1 0v-1zm-3 0a9 9 0 011 0v0h-1zm5-3a6 6 0 011 1c1 0 0 0 0 0l-1-1zm-3 0h-1 1zm-2 0a16 16 0 013 0h-3a4 4 0 01-2 0h2zm2-1h1a6 6 0 01-1 0c-1 0-1 0 0 0zm-3 0a7 7 0 011 0s1 0 0 0h-1zm3-1s1 0 0 0a4 4 0 01-1 0s1 0 0 0h-1a5 5 0 01-1 0 11 11 0 011 0c1 0-1 0 0 0a9 9 0 012 0zm0-1h0-1 1zm1-667h1-1zm0 2l-1-1a4 4 0 01-1 0 11 11 0 011 0h-1a9 9 0 012 0l1 1a4 4 0 01-1 0zm-1 0c-1 0 0 0 0 0h-1a9 9 0 011 0zm1 0c1 0 0 0 0 0a3 3 0 011 0h1a5 5 0 01-2 1zm-1 1l-1 1a4 4 0 01-1-1h1a18 18 0 013 1l-2-1zm1 1c1 0 0 0 0 0-1 0 0 0 0 0zm5 0h-2 1a6 6 0 011 0zm-5 3c-1 0 0 0 0 0h-1a9 9 0 011 0zm1 0c1 0 0 0 0 0a3 3 0 011 0h1a5 5 0 01-2 0zm-4 1c-1 0 0 0 0 0h0zm3 0h-1a4 4 0 01-1 0h1a18 18 0 013 0h-2zm1 0v0zm5 1l-1-1v1a6 6 0 011 0zm-19 5a1 1 0 011 0h-1zm5 0l1-1-1 1zm0-1h0zm-4 0a3 3 0 01-1 0 1 1 0 011-1v1a5 5 0 000-1 2 2 0 011 0 1 1 0 01-1 0v1h1a2 2 0 01-2 0h1zm-1 0a4 4 0 011 0 5 5 0 01-1 0zm0 0zm4 0c-1 0-1 0 0 0zm-3 0l-1 1 1-1zm2 1h-1a2 2 0 011 0zm2 0a3 3 0 01-1 0h1zm-6 0a4 4 0 011 1 2 2 0 01-1-1zm4 1h0zm-2 0h1-1zm2 0v0zm-3 1a2 2 0 011 0 7 7 0 011 0h-2zm2 1h0zm12 32c-1 0 0 0 0 0a3 3 0 011 0h0a6 6 0 01-1 0zm-1 2h0zm5 0h-1 1a7 7 0 011 0h-1zm-3 2c-1 0 0 0 0 0h-2a5 5 0 01-1 0 11 11 0 011 0c1 0 0 0 0 0a10 10 0 012 0h1a4 4 0 01-1 0zm-2 1h-1a7 7 0 011 0c1 0 1 0 0 0zm2 0c-1 0 0 0 0 0a3 3 0 011 0 5 5 0 01-1 0zm-5 1h1a1 1 0 01-1 0zm3 0a4 4 0 01-1 0h1a16 16 0 013 0h-3zm1 0h0zm5 1l-1-1h1a6 6 0 011 1h-1zm-6 5c1 0-1 0 0 0a2 2 0 011 0h-1zm2 1h-1a1 1 0 011 1v-1zm0 1h-2 2zm-4 0h-1a7 7 0 012 0h-1zm0 2l1-1-1 1zm1 0h-1 1zm4 1c-1 0 0 0 0 0h3a10 10 0 01-3 0zm-6 2s-1 0 0 0h1l1 1h-1l-1-1zm7 1v1-1zm0 2a7 7 0 011 0c1 0 0 0 0 0h-1zm0 3h1a6 6 0 01-1 0zm-2 1s-1 0 0 0h1s1 0 0 0h-1zm3 0a8 8 0 011 0c1 0 0 0 0 0h-1a8 8 0 013 0h-1-1c1 0 0 0 0 0h-1zm4 0l2 1h-1l-1-1zm0 2h-1a5 5 0 01-1 0h0a9 9 0 012 0h1a4 4 0 01-1 0zm-1 1c-1 0 0 0 0 0l-1-1a7 7 0 011 1zm1 0v-1a3 3 0 011 0v1h1a6 6 0 01-2 0zm-1 1h-1a4 4 0 01-1 0v-1l1 1a16 16 0 013 0h-2zm1 0c1 0 0 0 0 0-1 0 0 0 0 0zm5 0h-2 1a7 7 0 011 0zm-4 3v-1h-1a5 5 0 01-1 0 11 11 0 011 0s-1 0 0 0a9 9 0 011 0l1 1a4 4 0 01-1 0zm-1 0c-1 0 0 0 0 0h-1a7 7 0 011 0zm1 0c1 0 0 0 0 0a3 3 0 011 0h1a6 6 0 01-2 0zm-4 1c-1 0-1 0 0 0h0zm3 0h-1a4 4 0 01-1 0h1a16 16 0 013 0h-2zm1 1c1 0 0 0 0 0-1 0 0 0 0 0zm5 0h-1a6 6 0 011 0zm-14 4h0zm34 38h2l-1-1 1 1 2 1-2-1h-2zm2-2h0zm-5-5h1-1zm3 5h-1-2a3 3 0 012 0h2a2 2 0 01-1 1zm7 0l-1 1c-1 0 0 0 0 0l1-1zm-10 2h1v-1h-1-1 1a7 7 0 013 0v1h-2l-1 1c-1 0 0 0 0 0v-1zm-4 9l1 1-1-1zm2 1l-2 1 2-1zm6 6v1-1zm-9 9c-1-1 1-1 2-1h1l-2 1a3 3 0 01-1 0zm5-1l-1 1h1zm-33 6h-1 1zm1 0c-1 0 0 0 0 0a3 3 0 011 0h0a6 6 0 01-1 0zm3 1c-1 0 0 0 0 0h3a10 10 0 01-3 0zm-4 1h0zm4 0h1a7 7 0 011 0h-2zm-1 9l2 1h-1l-1-1zm2-7v1-1zm-5 2a4 4 0 01-1 0s-1 0 0 0h1a16 16 0 013 0h-3zm1 0h0zm5 1l-1-1h1a6 6 0 011 1h-1zm-6 4v1h-1-1l2-1zm-4 2h4a4 4 0 01-3 1l-1-1zm1 10l-2-1a6 6 0 012 0c2 1 3 1 1 1h-1zm1 1h-1a12 12 0 012 0h-1s1 0 0 0zm-3 2h1v-1h0l2 1a8 8 0 01-3 0zm2 0l-1 1 1-1zm1 1l1-1c2 1 0 1-1 1zm4 5l3-1-3 1zm6 9c1 0 0 0 0 0zm6 0h2l-1 1-1-1zm-14 7h1-1zm-2 12v-1a3 3 0 011 0v1h1a6 6 0 01-2 0zm-1 1h-1a4 4 0 01-1 0v-1l1 1a16 16 0 013 0h-2zm1 0c1 0 0 0 0 0-1 0 0 0 0 0zm5 0h-2 1a7 7 0 011 0zm6 1h2a3 3 0 01-2 0zm-10 2v-1h-1a5 5 0 01-1 0h1s-1 0 0 0a9 9 0 011 0l1 1a4 4 0 01-1 0zm-1 0c-1 0 0 0 0 0h-1a7 7 0 011 0zm1 0a3 3 0 011 0h1a6 6 0 01-2 0zm-4 1c-1 0-1 0 0 0h0zm3 0h-1a4 4 0 01-1 0h1a16 16 0 013 0h-2zm1 1c1 0 0 0 0 0-1 0 0 0 0 0zm4 0a6 6 0 011 0h-1zm-15 26s-1 0 0 0h2v1l-2-1zm7 2a6 6 0 012 0h-1-1zm0 4h2a5 5 0 01-2 0zm-2 0v1c1 0 0 0 0 0h1l-1-1zm3 1h0a9 9 0 012 0l-1-1c0-1-1 0 0 0a8 8 0 012 1h-2 0-1zm4 0h1-1zm0 2v-1h-1a5 5 0 01-1 0h1s-1 0 0 0a9 9 0 011 0l1 1a4 4 0 01-1 0zm-1 0h-1a7 7 0 011 0s1 0 0 0zm2 0c-1 0-1 0 0 0 0 0-1 0 0 0h1a6 6 0 01-1 0zm-2 1a4 4 0 01-2 0h1a17 17 0 014 1l-3-1zm1 1h0zm5 0h-1a6 6 0 011 0zm-4 2s1 0 0 0h-1a5 5 0 01-1 0 11 11 0 011 0c1 0-1 0 0 0a10 10 0 012 0s1 0 0 0a4 4 0 01-1 0zm-1 1h-1a9 9 0 011 0s1 0 0 0zm2 0c-1 0-1 0 0 0h1a5 5 0 01-1 0zm-5 1h1a1 1 0 01-1 0zm3 0a4 4 0 01-2 0h2a17 17 0 013 0h-3zm1 0h0zm5 1l-1-1a6 6 0 011 1c1 0 0 0 0 0zm18 20h-1l1-1zm-14 3h2a3 3 0 01-2 0zm-1-1zm5-2h1a7 7 0 012 0v1l-1-1-1 1c-1 0 0 0 0 0l-1 1v-1l1-1c0-1 1 0 0 0h-1zm3 1h2v-1l1 1h-3zm0-2h2a2 2 0 01-2 0h-1-1a3 3 0 012-1v1zm4 0h-1 1zm-6-6l1 1-1-1zm-9 8h-1-1l-1-1v1l-1-1-1-1h-2l1-1 1 1a3 3 0 001 0h1v-1 1h1l1-1h1l-1 1 3-1a15 15 0 012 0 8 8 0 012 0l1 1-2 1h1c0 1 1 2-1 1l1-1h-2l1 1h-1l-2 1-1 1v-2s1 0 0 0h-1zm-4 2l1 1h0a3 3 0 01-1-1s-1 0 0 0zm-2 1a2 2 0 011 0h2l1 1-2-1h-2zm3 2l-1-1a3 3 0 012 0l-1 1zm4-1h1l-1-1v1l-1-1 2-1v1l2 1a3 3 0 01-2 0h-1zm6 3h-1 1zm-3 0l1 1a1 1 0 01-1-1zm0 2l1 1-1-1zm-5 1a3 3 0 012 0v1l-2-1zm8 0l-2 1 2-1zm-4 14h2a3 3 0 01-2 0zm5 0l-1 1 1-1zm4-8zm-19 32l1 1h0l-1-1zm0 2h-1a5 5 0 01-1 0 11 11 0 011 0c1 0-1 0 0 0a10 10 0 012 0s1 0 0 0a4 4 0 01-1 0zm-1 1h-1a9 9 0 011 0s1 0 0 0zm2 0c-1 0-1 0 0 0h1a5 5 0 01-1 0zm-2 1a4 4 0 01-1 0h1a18 18 0 013 0h-3zm1 0h0zm5 1l-1-1a6 6 0 011 0v1zm-5 2h-1a9 9 0 011 0c1 0 1 1 0 0zm2 1v-1a4 4 0 011 0h-1l1 1a5 5 0 01-1 0zm-5 1l1-1a1 1 0 01-1 1zm3-1v1a4 4 0 01-1-1s-1 0 0 0h1a18 18 0 013 1l-3-1zm1 1h0zm5 0h-1 1a6 6 0 011 0h-1zm-18 6c-1 0 0 0 0 0zm4-1h0zm1-1zm-5 0s1 0 0 0a3 3 0 001 0h-1a2 2 0 011 0 2 2 0 01-1 0c-1 0 0 0 0 0zm-1 0a4 4 0 011 1 5 5 0 01-1-1zm0 1a2 2 0 011 0h-1c-1 0 0 0 0 0zm4 0zm-2 0h-1 1zm1 0s-1 0 0 0zm2 0v1zm-5 1c-1 0 0 0 0 0h1a2 2 0 01-1 0zm3 0h0zm-1 1v-1 1zm2 0zm-3 0a7 7 0 011 0h-1zm2 1v0zm11 33l1-1v1h1a6 6 0 01-2 0zm0 1c1 0 0 0 0 0-1 0 0 0 0 0zm5 0h-1a8 8 0 011 0zm-4 3v-1h-1a5 5 0 01-1 0 11 11 0 011 0s-1 0 0 0a10 10 0 011 0l1 1a4 4 0 01-1 0zm-1 0c-1 0 0 0 0 0h-1a9 9 0 011 0zm1 0h1c1 0-1 0 0 0h1a5 5 0 01-2 0zm-4 1h0zm3 0a4 4 0 01-2 0h1a18 18 0 014 1l-3-1zm1 1c1 0 0 0 0 0zm5 0h-1a6 6 0 011 0zm-6 6h-1a2 2 0 012 0h-1zm1 1a1 1 0 011 0h-1zm0 0h-1-1 2zm-4 1l-1-1a7 7 0 012 1h-1zm1 1c-1 0 0-1 0 0zm1 1l-2-1 2 1zm3 1l1-1c1 0 3 0 2 1a10 10 0 01-3 0zm-6 2c1 0-1 0 0 0h2-2zm8 1h0zm-1 1a7 7 0 012 0h-1-1zm1 4c-1 0-1 0 0 0h1a6 6 0 01-1 0zm-3 0v1l2-1-1 1-1-1zm4 1l-1-1a9 9 0 012 1l-1-1s-1 0 0 0a8 8 0 012 1c1 0 0 0 0 0h-2 0c-1 0-1 0 0 0zm3 0h1-1zm0 1s1 0 0 0h-1a5 5 0 01-1 0h1c1 0-1 0 0 0a9 9 0 012 0s1 0 0 0a4 4 0 01-1 0zm-1 1h-1a7 7 0 011 0s1 0 0 0zm2 0c-1 0-1 0 0 0 0 0-1 0 0 0h1a6 6 0 01-1 0zm-2 1a4 4 0 01-2 0h2a16 16 0 013 0h-3zm1 1l1-1-1 1zm5 0h-1a8 8 0 011 0c1 0 0 0 0 0zm-4 2h-1a5 5 0 01-1 0h1c1 0-1-1 0 0a9 9 0 012 0s1 0 0 0a4 4 0 01-1 0zm-1 1l-1-1a9 9 0 011 0v1zm2 0c-1 0-1 0 0 0v-1a3 3 0 010 1c1 0 0 0 0 0h1a5 5 0 01-1 0zm-5 1h1a1 1 0 01-1 0zm3 0a4 4 0 01-1 0v-1l1 1a17 17 0 013 0h-3zm1 0h0zm5 0h-1a6 6 0 011 0c1 0 0 1 0 0zm-13 5zm31 30l1 1-1-1zm2 8l2-1v-1l1 2h-3zm3-2l1-1-1 1zm-3 0h-1l-1-1a3 3 0 012 0v1h2a2 2 0 01-2 0zm7 0l-1 1 1-1zm-10 2l1-1s1 0 0 0h-1v-1l1 1a8 8 0 012 0c1 0 1 1 0 0h-1l-1 1c-1 1 0 0 0 0h-1zm-4 9h1-1zm3 1l-2 1 2-1zm5 5l1 1-1-1zm-9 9h2a3 3 0 01-2 0zm5 0l-1 1 1-1zm-32 6l-2-1 2 1zm0 0v-1a3 3 0 011 1h1a6 6 0 01-2 0zm3 1l1-1c1 0 3 0 2 1a10 10 0 01-3 0zm-3 0c1 0 0 0 0 0-1 0 0 0 0 0zm3 0h1a8 8 0 011 0s0 1 0 0h-2zm0 10h1-1zm2-7h0zm-6 1a4 4 0 01-1 0h1a16 16 0 013 1l-2-1h-1zm2 1c1 0 0 0 0 0-1 0 0 0 0 0zm5 0h-1a6 6 0 011 0zm-6 5h0zm-4 2v-1l3 1a4 4 0 01-2 0h-1zm0 9h-1a6 6 0 012 0l1 1-2-1zm2 1h-2a13 13 0 013 0l-1 1v-1zm-3 3l1-1v-1h3l-3 1h2a7 7 0 01-3 1zm1 0h0zm2 0h1l-2 1 1-1zm3 6c-1-1 2-1 3-1l-3 1zm7 8l-1 1v-1zm5 1h2c1 0 0 0 0 0l-2-1zm-14 6l2 1-2-1zm-1 12c-1 0-1 0 0 0h1a6 6 0 01-1 0zm-2 1a4 4 0 01-2 0h2a17 17 0 013 0h-3zm1 1l1-1-1 1zm5 0h-1a8 8 0 011 0c1 0 0 0 0 0zm7 1l2-1v1a2 2 0 00-1 0 3 3 0 01-1 0zm-11 1h-1a5 5 0 01-1 0 11 11 0 011 0c1 0-1 0 0 0a10 10 0 012 0s1 0 0 0a4 4 0 01-1 0zm-1 1l-1-1a7 7 0 011 0v1zm2 0c-1 0-1 0 0 0v-1a3 3 0 010 1c1 0 0 0 0 0h1a6 6 0 01-1 0zm-5 1h1a1 1 0 01-1 0zm3 0a4 4 0 01-1 0v-1l1 1a17 17 0 013 0h-3zm1 0h0zm4 0a6 6 0 011 0c1 0 0 0 0 0h-1zm-14 27l-1-1 1 1h1s1 0 0 0h-1zm7 2a6 6 0 011 0h-1zm0 3s-1 0 0 0h1a6 6 0 01-1 0zm-3 1h1s-1 0 0 0h0-1zm4 0a9 9 0 011 0c1 0 0 0 0 0h-1a8 8 0 013 0h-1-2zm3 0l1 1h1l-2-1zm1 2c-1 0 0 0 0 0h-2a5 5 0 01-1 0 11 11 0 011 0c1 0 0 0 0 0a9 9 0 012 0h1a4 4 0 01-1 0zm-2 1s1 0 0 0l-1-1a7 7 0 011 1c1 0 1 0 0 0zm2 0c-1 0 0 0 0 0v-1a3 3 0 011 1 5 5 0 01-1 0zm-2 1a4 4 0 01-1 0h1a17 17 0 013 0h-3zm1 0h0zm5 0h-1 1a6 6 0 011 0h-1zm-3 3h-2a5 5 0 01-1-1 11 11 0 012 0h-1a10 10 0 012 0l1 1a4 4 0 01-1 0zm-2 0s1 0 0 0h-1a9 9 0 011 0c1 0 1 0 0 0zm2 0c-1 0 0 0 0 0a3 3 0 011 0 5 5 0 01-1 0zm-5 1h1c1 0 0 0 0 0a1 1 0 01-1 1zm4 0h-1a4 4 0 01-1 0h1a18 18 0 013 1l-2-1zm0 1h0zm6 0h-2 1a6 6 0 011 0zm8 14h0zm-5 9h2a3 3 0 01-2 0zm-1 0v-1 1zm6-3h-1 1a8 8 0 013 0l-1 1h-1l-1 1v-1h1v-1h-1zm3-1h1a2 2 0 01-1 0h-3a3 3 0 012 0h1zm3 0h0zm3 0v1c-1 0 0 0 0 0v-1zm-7 2h2v-1l1 1 2 1h-2l-3-1zm-11 1l-1-1h-1-1l-1-1h-2v-1h1a3 3 0 001 0h2v1h2l-1-1v-1h1v1h-1l3-1a15 15 0 013 1 8 8 0 012 0l1 1h-2l1 1-1 1v-1h-2 1l-1 1h-2l-1 1 1-1v-1l-2 1zm-4 1l2 1h0a3 3 0 01-1 0l-1-1zm-2 2a2 2 0 011-1h1l1 1h1-4zm4 1a1 1 0 01-1 0l-1-1h1a3 3 0 011 1zm3-1h0c0-1 1-2 2-1s-1 0 0 1h1a3 3 0 01-1 1h-1l-1-1zm6 3l-1 1 1-1zm-3 1l1-1v1a1 1 0 01-1 0zm1 2h1l-1-1zm-5 0a3 3 0 011 0l1 1c0 1 0 0 0 0h-1l-1-1zm7 0l-2 1 2-1zm6 6v1-1zm-9 9c-1-1 1-1 2-1l-1 1a3 3 0 01-1 0zm5-1l-1 1h0zm9 13h-1 2zM40 302h-2 2z"
      fill-rule="evenodd"></path>
    <path
      d="M38 99v-1s-1 0 0 0h1l1-1h1v-1c0-1 0 0 0 0h-3-2 2a5 5 0 01-2 0 2 2 0 000 1 4 4 0 001 1h0l1 1zm0-2zm0 0h0zm-1 0l1 1-1-1zM38 172l-1-1h-2-2a3 3 0 01-1 0h1-1v1h0a11 11 0 005 0h1zM28 265h1-1zM29 199h0zM28 265zM25 24h1zM24 24h-1 1zM24 23a6 6 0 00-1 0h1zM39 63h-2 2zM34 73a8 8 0 001 0h-1zM32 20zM37 11v0zM37 16h1a1 1 0 00-1 0z"
      fill-rule="evenodd"></path>
    <path
      d="M40 95h1a2 2 0 00-1-1 3 3 0 00-1 1l-3 1h3l1-1zM34 74v0zM47 91h-1 0a6 6 0 00-1 0h2zM39 166h1zM42 89a2 2 0 001 0 2 2 0 01-1 0zM38 85zM38 85v1a1 1 0 010-1zM33 408a1 1 0 00-1 0v1l1-1zM37 396h-1 0l1 1v-1zM38 499zM40 422a2 2 0 001 0h-1zM36 419h0zM32 406v1a8 8 0 002 0l-2-1zM31 353h-1zM36 349zM36 345h-1 1c1 0-1 0 0 0zM24 358zM22 358h1l-1-1v1h1zM22 356c-1 0 0 0 0 0zM36 418v0c1 0 0 0 0 0zM28 532zM34 563h-1-1 1v-1a3 3 0 01-1 0 6 6 0 00-1 0c-1 1 1 1 2 1h1zM37 505h-2v-1h-3a3 3 0 01-1 1v-1h-1a1 1 0 011 1l1 1h-2a11 11 0 006-1 9 9 0 001 0zM36 604h-1 0a6 6 0 00-1 0h1l1 1v-1zM27 505a3 3 0 00-1 0h1-1a2 2 0 001 1 2 2 0 000-1zM27 598zM27 598v1a1 1 0 010-1zM39 635h-2a2 2 0 00-1 0v1h1l2-1zM46 425h-1-1 1v-1a3 3 0 01-1 0 6 6 0 00-1 0c-1 1 1 1 2 1h1zM37 502zM39 429l1-1a2 2 0 00-1 0 3 3 0 00-1 0l-3 1h4zM37 432h-1a4 4 0 011 0h1l1-1-1-1h0l-1-1h-2v1l1-1s-1 0 0 0v1a5 5 0 01-1 0 4 4 0 000 1h1c-1 0-1 0 0 0v1a1 1 0 01-1 0h2zm-1-2s1 0 0 0zm1 1h-1 1zm-1 0h0zM36 432z"
      fill-rule="evenodd"></path>
    <path
      d="M38 432a1 1 0 00-1 0h-1a5 5 0 001 1l1-1zM33 741a1 1 0 00-1 0v1l1-1zM36 752h0zM32 739v1a8 8 0 002 0l-2-1zM36 751v0zM39 762l1-1a2 2 0 00-1 0 3 3 0 00-1 1h-3 4zM46 758h-1-1 1a3 3 0 01-1 0 6 6 0 00-1 0h3zM40 755a2 2 0 001 0h-1zM36 682zM36 678h-1a6 6 0 001 0c1 0-1 0 0 0zM31 686h-1zM37 730l-1-1h0v1h1zM24 691zM22 691h1l-1-1v1h1zM22 689zM27 932zM34 896h-1-1 1a3 3 0 01-1 0 6 6 0 00-1 0h3zM38 833zM37 838h-5a3 3 0 01-1 0c-1 0 0 0 0 0h-1a1 1 0 011 0l1 1h-2a11 11 0 006-1 9 9 0 001 0zM28 865zM36 938l-1-1h0a6 6 0 00-1 0l1 1h1zM39 969l-2-1a2 2 0 00-1 0v1h3zM27 931zM27 838a3 3 0 00-1 0h1-1v1a2 2 0 001 0zM37 765h-1a4 4 0 011 0h1l1-1-1-1h-1l-2-1v1h1s-1 0 0 0c0 0 1 0 0 0a5 5 0 01-1 0 4 4 0 000 2h1v-1 1a1 1 0 01-1 0h2zm-1-2s1 0 0 0zm1 1h-1 1zm-1 0h0zM36 765z"
      fill-rule="evenodd"></path>
    <path d="M38 765a1 1 0 00-1 0v1h-1a5 5 0 001 0l1-1zM37 835z" fill-rule="evenodd"></path>
  </g>
</svg>