<svg preserveAspectRatio="none" xmlns="http://www.w3.org/2000/svg" viewBox="0 0 100 1000" fill="#FFFFFF">
  <g>
    <path
      d="M61 833zM62 903zM60 903a1 1 0 001 0 1 1 0 011 0l-1-1-1 1zM71 830h1a1 1 0 00-1-1 2 2 0 000 1zM64 772h1v1h1a7 7 0 001 0l-2-1h-1zM62 730l1 1h0a6 6 0 001 0l-1-1h-1z"
      fill-rule="evenodd"></path>
    <path
      d="M61 991l1-1a5 5 0 01-2 0h1l-1-1 2 1v-1a3 3 0 011 0l1-1h-1 1v-1l1 1v-1a19 19 0 01-2 0h-1l1-1a4 4 0 011 0v1a1 1 0 001 0l-1-1h-2c-1 0 0 0 0 0h-2c-1 0 0 0 0 0a3 3 0 011 0 4 4 0 01-2-1h1a3 3 0 01-1 0h-1-1a6 6 0 012 0 6 6 0 011 0 1 1 0 010-1c-1 0 0 0 0 0a9 9 0 01-2 0l-1-1a3 3 0 011 0c1 0 0 0 0 0h2l1 1a3 3 0 011-2 5 5 0 011 0v-1h2l-1-1h1v-1-1h3c1-1-1-1 1-1 3 0 0 1 0 1a1 1 0 001 0h-1 1a1 1 0 011 0h-1v1h1a3 3 0 01-1 0h-1l-1 1h-1l1 1h3l1-1h1a1 1 0 011 0h1v-1h-1v-2a2 2 0 01-1 0c-1 0 0 0 0 0h1-1 1s-1 0 0 0a3 3 0 011 0h-1 1v-1h-2 1v-1c-1 0 0 0 0 0a5 5 0 01-2 0h1a16 16 0 00-1-2l-4-2h-2-1c-1 0 0 0 0 0h1l1-1h-1a2 2 0 011 0l1 1h-1c0 1 0 0 0 0a2 2 0 001 0c1-2 2-1 1-3s-5-2-5-3v-4l-2-4a5 5 0 00-2-3l-4-2v-5l1-5 3-2 1-1a16 16 0 01-4 0h3c1 0 0 0 0 0h-1 1a5 5 0 011 0 6 6 0 01-2-1 3 3 0 01-1 0h-2 1a6 6 0 011 0 25 25 0 015 0h1a2 2 0 000-2l-2-1 1-1h2l-2-1h1v-1l1-1a6 6 0 011 0 19 19 0 000-2 9 9 0 01-2 0c-1 0 0 0 0 0h-3v-1h2l1-2a2 2 0 011 0 3 3 0 011 0 5 5 0 01-2-1h2l-1-1h1a2 2 0 00-1 0h-1 2a1 1 0 01-1 0 3 3 0 01-1 0v-1a3 3 0 00-1 0l-1 1v-1h-1 3l-3-1c-1-1-2 0 0 0h2a7 7 0 011 0v-1h-1-1l2-1h-1a2 2 0 011 0l-1-1c-2 0 1 1-1 1h-1v-1h1v-1a4 4 0 00-1 0l-1 1a1 1 0 01-1-1h4-2 1v-1c-1 0 0 0 0 0h-1-1v-1h-1a4 4 0 001 0h0-3 3a1 1 0 000-1h-1 1l-5-1h1c1 0 0 0 0 0h1c1 0-1 0 0 0h2s-2 0-1-1h-3-1 1v-1l3 1h-1 1l-4-1h-1 3-1l-2-1c-1-1 0 0 0 0h-2 1a5 5 0 011 0 6 6 0 01-3-1h1a3 3 0 01-1 0h-1-1 1a6 6 0 011 0 25 25 0 015 0h2a2 2 0 010-1v-1a1 1 0 011 0h-1 1a7 7 0 011-1 17 17 0 01-2 0h0-1-1l-1-1c0-1 0 0 0 0l2-1h-1 1v-1-1h3l-1-1h2a14 14 0 00-1-1 3 3 0 01-1 0h1l-4-2-4-2-4-4a4 4 0 012-3l2-2-4-2-4-3-3-4a3 3 0 01-1 0h2v-1h-1-1c-1 0 0 0 0 0l-1-1h2l-1-1c-1 0-3 0-2-1s1 1 2 1h1c1 0 0 0 0 0 0-1-3-1-2-2s2 1 2 1l-1-1h2a6 6 0 00-2-1l-2-1 2-1h1l-1-1a5 5 0 01-2-1l-1-3a11 11 0 01-2 0 15 15 0 01-2 0 8 8 0 01-3 0v-1l1-1c0-1-1-2 1-1 1 0-2 0-1 1h2l-1-1h1a9 9 0 012 0l-1-1a7 7 0 00-1-1h-2a3 3 0 012 0 10 10 0 00-3-1c-2-1-5-2-3-4l8-3 9-4 4-2-1-1a8 8 0 012 0h1-2a6 6 0 013 0l1-1h-3l-1-1s0 1 0 0c0 0 2 0 1-1l-2 1v-1h-2l-3-1h4a1 1 0 011 0l-2 1a7 7 0 002 0 4 4 0 001 0l-1-1 3-1h-2a3 3 0 01-1 0 5 5 0 01-2-1l-1-1a6 6 0 013 1c1 0-1 1 1 1a5 5 0 001 0v-1-1a8 8 0 013 0 5 5 0 011 0l2 1 2-1h4l-2-1h1a1 1 0 000-1 3 3 0 01-1 0h-2v-1l2-1h-1-1l1-1h1a9 9 0 012 0 6 6 0 011 0 5 5 0 011 0 11 11 0 01-1 0s1 0 0 0a1 1 0 01-1 0v1h0l1 1v-1h1v1l1-1h1a1 1 0 010-1c-1 0 0 0 0 0l-2-1a3 3 0 01-1 0l1-1a14 14 0 01-3 0h3-2 1a8 8 0 01-1-1h-2a10 10 0 011 0h-2 1a6 6 0 011 0 4 4 0 011 0 4 4 0 00-2-1h-3a15 15 0 013-1 4 4 0 011 0h0-1s1 0 0 0l-1-1a6 6 0 012 0 5 5 0 011 1v-1 1h1l-5-1h7a5 5 0 01-1 0h1v-1h-2a5 5 0 012 0v-1h-2v1a7 7 0 01-2 0v-1c-1 0 0 0 0 0l-1-1 3 1h1l1-1h-2 2a3 3 0 013-2 7 7 0 01-2-3c0-4 1-3 3-4a4 4 0 001 0 14 14 0 012-2 2 2 0 00-1 0h-3l2-1h-4c-1 0 2 0 1-1h-2 5c1 0-2 0-1-1a5 5 0 012 0v1a3 3 0 001-1c1 0-1-1 1-1a1 1 0 011 1h-1l4-1a9 9 0 012 0l1 1h-1l-2 1h-3 2v1l2-1h2a2 2 0 011 0l2-2h-1v-1a5 5 0 00-1 0h-3l2 1a21 21 0 01-2 0 3 3 0 01-2-1l1-1h-1 1c0-1-1-1 1-1s-1 1 1 1a7 7 0 002 0 9 9 0 00-2-2 10 10 0 01-3 0 7 7 0 012 0l-1-1a4 4 0 00-1 1h-2l-1 1h2-4l-1 1h4c2 0 2 1 0 1l-1 1c-5 0-5-2-4-3v-1l1 1v-1l-1-1-1-1-1-1h-1l1-1h-1 3c1 0 0 0 0 0l-5-2h-3a4 4 0 011 0l-5-2a22 22 0 00-2-3l1-3c-1 0-1-2 1-2s9 0 10-2 1-2 1-3l-3-3c-3-2-4-1-4-3s1-3 4-4h-1s-1 0 0 0a4 4 0 011 0h-1a2 2 0 001 0l2-1a6 6 0 01-1 0s-1 0 0 0h1a7 7 0 001 0l1-1a11 11 0 01-2 0h0c-1 0 0 0 0 0h-2l1-1a5 5 0 011 0 6 6 0 01-3 0h1a3 3 0 01-1 0h-1l-1-1h1a6 6 0 011 1 25 25 0 015-1h1v-1l-1-1h-1v-1h2v-1a9 9 0 01-1 0h1v-1a2 2 0 00-1-1l-5-4 6-5 6-5 3-4s-1 0 0 0h-2 1l1-1v-1h-1c-2 0 2-1 1-1a10 10 0 00-2 1 3 3 0 01-1-1h-1-1-1s-1 0 0 0h2l1-1h-3c-1 0-2-1 0-1 1 0-1 1 1 1l1-1h1c-1 0 2 0 1-1l-1 1v-1h0-1v-1h-1c-2 0 1 1-1 1l-1-1h0 1l-1-1h1a1 1 0 011 0h-2a1 1 0 01-1 0h2c-1 0 0 0 0 0v-2h-1l-1-1h-1 1a4 4 0 001 0c1 0 0 0 0 0h-3 3a1 1 0 00-1-1h-2 2l-5-1h2l2-1h-1-1-1 0l-1-1 3 1c1 0 0 0 0 0s1 0 0 0l-4-1h0l1-1a4 4 0 011 0v1a1 1 0 001 0h-1v-1h-5 1a5 5 0 011 0 6 6 0 01-2-1h-2a6 6 0 012 0 25 25 0 014 0h2a3 3 0 011-1v1h1a11 11 0 01-2-2h-1l-1-1a5 5 0 011-1l-1-1h-1l1-1v-1l-1-1v-1l-5-1h1l1 1c1-1 0-1-1-1l-1-1h1-2s1 0 0 0c0 0-1 0 0 0 0-1 2 0 1-1h-1l-2-1 3 1v-1h1l-3-1h2l1-1 1 1v-1a6 6 0 00-2-1l-2-1 1-1 1 1v-1l-1-1-1-1h2l2 1v-1h1l1 1v-2a2 2 0 01-1 0v-1h1a7 7 0 010-1 12 12 0 000-4 6 6 0 010-3 6 6 0 01-3 0l-1-1a4 4 0 00-2 1h-2a6 6 0 01-1 0h-1l4-1h-1-2 1v-1l2-1-1-1h2s-1 0 0 0h-1 2l-1-1 1-1h-1a11 11 0 002 0l1-1-1-1 6-2v-1h0l4-1h-4 3l-2-1a7 7 0 013 0l2 1h1a4 4 0 010-1h-2c-1 0 0 0 0 0l1-1-4 1-1-1h-1l2-1h-5c-1-1-4-1-3-2l2 1 1-1 1 1 1-1a1 1 0 011 0l-3 1a7 7 0 002 0 4 4 0 001 0c1 0 0 0 0 0 0-1 4-1 3-2l-2 1a3 3 0 01-1 0 5 5 0 01-2-2h-1a6 6 0 013 0v1a5 5 0 002 0l-1-1a8 8 0 013-1 2 2 0 011 0v-6l-1-4v-2l-27-1h28c-7-4-7-9-7-9l1-1a6 6 0 01-2-1h2c-1 0 0 0 0 0a3 3 0 011 0l1-1v-1h-1 1a19 19 0 01-2 0h2l-1-1h-1 1a4 4 0 011 0 1 1 0 001 0h-6 1v-1a3 3 0 011 0h-1a5 5 0 01-1 0h-1l-2-1h1a6 6 0 012 1 6 6 0 011-1 2 2 0 010-1h-1l1 1a9 9 0 01-2-1h-1a4 4 0 011 0h2a3 3 0 012-1 6 6 0 011 0h-1l1-1 2-1h-1l1-1v-1h2c1 0 1 0 0 0l-1-1h2 1c3 0 0 0 0 1a2 2 0 001 0h-1 1-1l-1 1v1h-1 1l2 1v-1h3a1 1 0 011 0h2l-1-1s-1 0 0 0h-1a3 3 0 011 0l-1-1c-1 0 0 0 0 0a3 3 0 010-1h-1 1-1a1 1 0 01-1 0h1l-1-1 1 1v-1a3 3 0 011 0l-2-1 1 1h1l-1-1a5 5 0 01-1 0h1a15 15 0 00-1-2 1 1 0 01-1 0h1l-5-2h-1-1c-1 0 0 0 0 0h1v-1c1-1 0 0 0 0a2 2 0 011 0v1c1-2 3-1 2-3s-5-2-5-3v-4c-1-1-3-2-3-4a5 5 0 00-2-3l-3-2v-5l1-5c-1 0-1 0 0 0l3-2v-1a16 16 0 01-3 0h4-2c-1 0 0 0 0 0a5 5 0 011 0 6 6 0 01-2-1h1a3 3 0 01-1 0h-1-1a6 6 0 012 0 25 25 0 015 0 2 2 0 001-2h-1l-1-1 2-1-1-1h1v-1-1a6 6 0 011 0v-1a10 10 0 01-2-1s1 0 0 0h-1-2c-1 0 0 0 0 0v-1h3l1-2a2 2 0 011 0 3 3 0 011 0v-1a5 5 0 01-3 0l2-1h1-2 1-1v-1l1 1v-1a3 3 0 01-1 0h-1a1 1 0 01-1 0h-1v-1h0c-1 0-2-1 0-1 1 0-1 1 1 1l1-1a4 4 0 011 0c-1 0-1 0 0 0a1 1 0 010-1h0l-1-1a3 3 0 011 0h-1s1 0 0 0c-3 0 0 1-2 1v-1h-1 0l1-1h-1 2a4 4 0 00-1 0h-1a1 1 0 01-1 0h3l-1-1h1-1 1v-1a1 1 0 01-1 0h-2l-1-1 1 1a4 4 0 001 0v-1h-3 3a1 1 0 00-1 0h-1l1-1h-5 1l1-1h1l-2-1h-1-1l2-1h-1-1 1a4 4 0 011 0 1 1 0 001 0h-6 1v-1a5 5 0 011 0 6 6 0 01-2 0h-1v-1h-1a6 6 0 012 0 25 25 0 014 0h2a2 2 0 011 0v-1h1a7 7 0 011-1 17 17 0 01-3 0h1-2l-2-1h1l2-1h-1v-1h1v-1h2c1 0 1 0 0 0l-1-1h3-1 1a13 13 0 00-2-1 3 3 0 01-1 0h1l-4-2-3-2-4-4a4 4 0 012-3l2-3c0-1-3 0-4-2s-3-1-4-3l-3-3a3 3 0 01-1 0c-1-1 1-1 1-1h1a4 4 0 01-1 0l-1-1h1-2s1 0 0 0h-1c1-1 3 0 2-1h-1l-2-1 3 1v-1h1l-3-1 3 1-1-1 1-1 1 1v-1h-1a6 6 0 00-1-1l-2-1 1-1 1 1v-1a5 5 0 01-2-2l-1-2-1-1h1-1a11 11 0 01-2 1 15 15 0 01-2 0 8 8 0 01-2-1h-1l2-1h-1l1-2v1h1v-1a9 9 0 012 0h-1v-1h-2a3 3 0 012 0 10 10 0 00-3-1c-2-1-5-3-3-4l7-4c0-1 10-2 9-3l5-3h-1a8 8 0 012 0l-1-1a6 6 0 012 0l2-1-3 1-1-1h-1l2-1h-5l-3-1h2l1-1 1 1 1-1a1 1 0 011 0l-3 1a7 7 0 002 1 4 4 0 001-1c1 0 0 0 0 0l2-1h-1a3 3 0 01-1 0 5 5 0 01-2-1v-1h-1a7 7 0 013 0v1a5 5 0 002 0l-1-1a8 8 0 013-1 4 4 0 011 0c2 1 1 2 3 1h2c1 0 4 0 3-1h-1 1l-2-1h2a3 3 0 01-1 0 3 3 0 01-1 0v-1h-1-1l2-1h-1v-1h1l1-1a9 9 0 011 0h1v1a6 6 0 011 0 5 5 0 011 0 11 11 0 01-1 0 1 1 0 01-1 0h-1l2 1h-2 2-1 3l1-1a2 2 0 01-1 0l-2-1s-1 0 0 0v-1a14 14 0 01-3 0h2c-1 0 0 0 0 0v-1a3 3 0 011 0 8 8 0 01-1 0h-3a10 10 0 012 0l-1-1h-1 1a6 6 0 011 0 5 5 0 011 0 4 4 0 00-3 0h-2a15 15 0 013-1s-1 0 0 0h1l-1-1s0 1 0 0a3 3 0 01-1 0h0a6 6 0 011 0 5 5 0 011 0h-3 4l1-1h2a5 5 0 01-1 0h-1a5 5 0 011 0v-1h-1v1a7 7 0 01-2-1h-1l1-1h-1l3 1h1v-1h-1 2a3 3 0 012-2 7 7 0 01-1-3c-1-5 1-3 3-4a4 4 0 001-1 13 13 0 011-1v-1l-2 1-1-1h2-4l1-1h-2l2-1 2 1c2 0-1-1-1-1a5 5 0 012 0c1 0-1 0 0 0a3 3 0 002 0c1 0-1-1 1-1a1 1 0 011 0l-1 1 3-1a9 9 0 013 0l1 1h-2-2l-2 1h3l2-1a2 2 0 012 0c1 0 2 0 1-1l-1-1h-4l3 1a21 21 0 01-2 0 3 3 0 01-2-1c-1-1 1-1 1-1l-1-1h1v-1c3 0 0 2 2 2a6 6 0 001-1 9 9 0 00-2-1 10 10 0 01-3 0 7 7 0 013 0l-1-1a4 4 0 00-1 0h1-3l-1 1 1 1h-4 4c2 1 1 2 0 2h-1c-5 0-6-1-5-2l1-1h1v-1h-1l-1-2h-1l-2-1h2l-2-1h2l1 1v-1l-4-1a2 2 0 01-1 0h-2a4 4 0 011-1l-5-1a22 22 0 00-3-3l2-4c0-1-2-1 1-2s8 0 9-1 2-2 1-4l-3-2-4-3c0-1 1-3 4-4l-1-1a3 3 0 011 0 2 2 0 001 0h1a6 6 0 01-1 0l1-1v1h1a7 7 0 000-1 3 3 0 001 0s-1 0 0 0a11 11 0 01-1 0h0l-1-1h-2 1a5 5 0 011 0 6 6 0 01-2 0v-1h-2a6 6 0 012 0 25 25 0 014 0h1v-1l1-1h-1l-2-1h1l2-1a9 9 0 01-1 0v-1a2 2 0 000-1l-6-5 6-4 7-5 2-4v-1c-1 0 0 0 0 0h-1 1l1-1v-1h-1a2 2 0 011 0h-1a10 10 0 00-2 0 3 3 0 01-1 0v-1h-3 3l-3-1c-1-1-2 0 0 0h2a5 5 0 011-1h1a2 2 0 011 0h-1-1l-1-1-1 1c-2-1 1-1 2-1h-1a2 2 0 011 0h-1v-1c-2 0 1 1-1 1-1 0 0 0 0 0l-1-1c0-1 0 0 0 0h1v-1h-2 1a2 2 0 011 0 6 6 0 01-1 0h1v-1s-1 0 0 0l-1-1h-2 1-2c-1-1 0 0 1-1h1-1l1-1h-4 2l-1-1h0l-3-1h1l3 1-1-1h-2-1 2l-2-1h1-1-3l1-1a5 5 0 011 0 6 6 0 01-2 0 3 3 0 01-1 0h-1l-1-1h1a6 6 0 011 1 25 25 0 015-1h2a3 3 0 011 0s-1 0 0 0a11 11 0 01-2-2h-1-1v-1a5 5 0 011 0l-1-1v-1c-1 0 0 0 0 0v-1l-1-1v-1l-5-1h3l-1-1h-1s1 0 0 0h-1l-1-1h1l-2-1h3l-2-1h2l-1-1h3c1 0 0 0 0 0h-1a6 6 0 00-1-1l-3-1 2-1h1l-1-1c-1-1 0 0 0 0l-1-1h2l2 1v-1h2v-1a2 2 0 01-1 0l-1-1h1a7 7 0 010-1 11 11 0 000-5 6 6 0 010-2 7 7 0 01-2 0l-2-1a4 4 0 00-1 0l-2 1a6 6 0 01-2 0l3-1h-1-1l1-1-1-1 2-1h1v-1h1l-1-1h1-1a11 11 0 002 0l1-1v-1l6-3 1-1-1 1 4-1h-5 3l-1-1a7 7 0 013 0l1 1 1-1a1 1 0 011 0h-2l1-1h-5-1c0-1 3-1 1-2l-2 1v-1h-2l-3-1h3c1 0 0 0 0 0h2c1 1-3 1-2 1a7 7 0 002 0 4 4 0 001 0c1 0-1 0 0 0 0-1 4-1 2-2l-1 1a3 3 0 01-1-1 5 5 0 01-3-1l-1-1a6 6 0 013 1l1 1a5 5 0 001 0v-1-1a8 8 0 013 0l1-7-2-4c-1-2 1-2 1-2h-1c-7-4-7-9-7-9l1-1a6 6 0 01-2-1h2c-1 0-1 0 0 0a3 3 0 011 0l1-2h-1 1a19 19 0 01-2 0l2-1h-1 0a4 4 0 011 0h-2l-1-1c-1-1-1 1-2 1l1-1a4 4 0 01-1 0 3 3 0 01-1-1c0 1 0 0 0 0h-1a6 6 0 011 0h1a7 7 0 011 0 2 2 0 010-1h-1s1 0 0 0a9 9 0 01-1 0h-1a3 3 0 011 0h2a3 3 0 012-1 7 7 0 011 0l-1-1h1l2-1h-1v-1-1h3v-1h-1 2c1 0-1-1 1-1h-1 1c3 0-1 1 0 2v-1l1 1v-1a1 1 0 010 1c-1 0 0 0 0 0s1 0 0 0a4 4 0 01-1 0h-1v2h-1 6a1 1 0 011 0l1-1s-1 0 0 0h-1a3 3 0 011-1h-1c-1 0 0 0 0 0a3 3 0 01-1-1 1 1 0 01-1 0v-1h1v0a3 3 0 011 0l-2-1h2-1v-1a5 5 0 01-1 1l1-1a15 15 0 00-1-1 2 2 0 01-1 0h1l-5-2h-1-1c-1 0 0 0 0 0l-1-1 2 1-1-1h1a2 2 0 011 0h0c1-1 3 0 2-2s-6-3-6-4v-3l-2-4a5 5 0 00-2-3c-1-1-3-1-3-3v-4l1-5c-1 0-1 0 0 0 0-1-1-1 3-3a16 16 0 01-3 0 25 25 0 013 0h1-2c-1 0 0 0 0 0v-1a5 5 0 011 0 6 6 0 01-2 0h1a3 3 0 01-1 0h-1l-2-1h1a6 6 0 012 1v-1a25 25 0 014 0h1a2 2 0 001-2h-1-1v-1h2v-1h-1 1v-1-1a6 6 0 011 0v-2a10 10 0 01-2 0h-1-2v-1l3-1 1-1a2 2 0 011 0v-1a5 5 0 01-2 0h2v-1h-1 1-1c-1 0 0 0 0 0h1a3 3 0 01-2-1s1 0 0 0a1 1 0 01-1 0 1 1 0 01-1 0h-1 4c1-1-3-1-3-1s-2-1 0 0h1l1-1a2 2 0 011 0h-1 1a1 1 0 010-1h-1v-1h-1c-2 0 1 1-1 1l-1-1h0 1l-1-1h2a4 4 0 00-1 0h-1a1 1 0 01-1 0h3l-1-1h1-1 1a1 1 0 01-1 0l-1-1h-1-1 1a4 4 0 001 0c1 0 0 0 0 0l-3-1h3a1 1 0 00-1 0h-1l1-1h-5 1l1-1h1-1l-2-1h-1 2l-1-1h-1 1a4 4 0 011 0 1 1 0 001 0h-6 1v-1a5 5 0 011 0 6 6 0 01-2 0h-1l-2-1h1a6 6 0 012 1v-1a25 25 0 014 0h2a2 2 0 011 0v-1h1a8 8 0 011-1 17 17 0 01-3 0h1-4l1-1h2l-1-1 1-1v-1h2c1 0 1 0 0 0l-1-1h3-1 1a13 13 0 00-2-1 3 3 0 01-1 0h1l-4-2c-1-1-2 0-3-2s-4-4-4-5a4 4 0 012-3l2-2-4-2-4-3-3-3a3 3 0 01-1-1h2a3 3 0 01-1 0l-1-1h1-2s1 0 0 0h-1c1-1 3 0 2-1h-1l-2-1 3 1v-1h1l-3-1h2l1-1 1 1v-1h-1a7 7 0 00-1-1l-2-1 1-1 1 1v-1a5 5 0 01-2-2l-1-3h-1 1-1a11 11 0 01-2 1 15 15 0 01-2-1 8 8 0 01-2 0l-1-1h2l-1-1 1-1v1h1v-1a9 9 0 012 0l-1-1h-2a3 3 0 012 0 10 10 0 00-3-1c-2-1-5-3-3-4l7-4c0-1 10-2 9-3l5-3h-1a8 8 0 012 0l-1-1a6 6 0 012 0l2-1-3 1-1-1h-1l2-1h-5c-1-1-4-1-3-2l2 1 1-1 1 1 1-1a1 1 0 011 0l-3 1a7 7 0 002 0 4 4 0 001 0c1 0 0 0 0 0 0-1 4-1 2-2l-1 1a3 3 0 01-1 0 5 5 0 01-2-2h-1a7 7 0 013 0v1a4 4 0 002 0l-1-1a8 8 0 013-1 4 4 0 011 0l3 1h2l3-1h-1 1l-2-1h2a3 3 0 01-1 0 3 3 0 01-1-1h-1l-1-1h1l-1-1h2l1-1a9 9 0 011 0h1a5 5 0 011 0 5 5 0 011 1 11 11 0 01-1 0 1 1 0 01-1 0h-1l2 1h-2 2-1 3l1-1a1 1 0 01-1 0l-2-1s-1 0 0 0v-1a13 13 0 01-3-1 25 25 0 013 1s0-1 0 0v-1h-1c-1 0 0 0 0 0a3 3 0 011 0 10 10 0 01-1 0l-3-1a9 9 0 012 0h-1-1 1a6 6 0 011 0 5 5 0 011 0 4 4 0 00-3-1l-2 1a15 15 0 013-1s-1 0 0 0l1-1h-1a3 3 0 01-1 0h0a6 6 0 011 0 5 5 0 011 0h1s-5 0-4-1h7a5 5 0 01-1 0h-1a5 5 0 011 0v-1h-1s1 0 0 0a7 7 0 01-2 0h-1v-1h3l1 1v-1c1 0-2 0-1-1h2a3 3 0 012-2 7 7 0 01-1-3c-1-4 1-3 3-3a4 4 0 001-1 13 13 0 011-1 2 2 0 000-1c-1 0 0 0 0 0h-5c-1-1 2-1 1-1l-2-1h2l2 1c2 0-1-1-1-1a5 5 0 012-1v1a3 3 0 002 0c1-1-1-1 1-1a1 1 0 011 0l-1 1c2 0 1-2 3-2a9 9 0 013 1c1 0 2 0 1 1h-6l2 1h1a45 45 0 014-1c1 0 2 0 1-1l-1-1h-1a21 21 0 01-2 0 3 3 0 01-2 0c-1-1 1-1 1-1l-1-1h1v-1c3 0 0 2 2 2a7 7 0 001-1 9 9 0 00-2-1 10 10 0 01-3 0 7 7 0 013-1h-1a3 3 0 00-1 0h1-3l-1 1 1 1h-4 4c2 1 1 1 0 2h-1c-5 0-5-2-5-3h2v-1h-1l-1-2-1-1h0l-2-1h3c0-1 0 0 0 0l-4-1a2 2 0 01-1 0c-1 0-3 0-2-1a4 4 0 011 0l-5-1a22 22 0 00-3-3l2-4c0-1-2-1 1-2s8 0 9-1 2-2 1-4l-3-2c-3-1-4-2-4-4s1-2 4-4h-1a4 4 0 011 0 2 2 0 001 0h2a6 6 0 01-1 0v-1s-1 0 0 0l1 1v-1h1c1 0 0 0 0 0h-1 2-2l-1-1h-2 1a5 5 0 011 0 6 6 0 01-2 0 3 3 0 010-1h-2a6 6 0 012 0 25 25 0 014 0h1v-1l1-1h-1l-2-1h1l2-1a9 9 0 01-1 0v-1c0-1 0 0 0 0a2 2 0 000-1l-6-5 6-5c1-2 5-3 7-5l2-4c-1 0 0 0 0 0h-1 1l1-1v-1h-1a3 3 0 011 0h-2c-1 0 2 0 1-1a10 10 0 00-2 1 3 3 0 01-1-1h-3 3c1-1-2-1-3-1s-2 0 0 0h2a7 7 0 011-1h1a2 2 0 011 0h-1a7 7 0 00-1 0l-1-1h1s-1 0 0 0l-1-1c0-1 0 0 0 0-2 0 1 1-1 1-1 0 0 0 0 0l-1-1h0l1-1h-2 1a3 3 0 011 0 6 6 0 01-1 0h1v-1s-1 0 0 0v-1h-1-1l-1-1 1 1h1l-1-1h-1 1-2l1-1h1-5l1-1c0-1 0 0 0 0h1l1-1h-1-3 0c-1-1 1 0 1-1h-1 0 1-1-3v-1h1a5 5 0 011 0 6 6 0 01-2 0 3 3 0 01-1 0l-1-1h-1 1a6 6 0 011 0 25 25 0 015 0h2a3 3 0 011 0s-1 0 0 0a11 11 0 01-2-2h-1l-1-1c0-1 0 0 0 0a5 5 0 011 0l-1-2c-1 0 0 0 0 0v-2h-1v-1l-5-1h3l-1-1h-1v-1h-1v1l-1-1h2l-1-1-2-1 3 1v-1l-2-1 2 1-1-1h3v-1h-1a6 6 0 00-1-1l-3-1h3l-1-1v-1h-1 6v-2a2 2 0 01-1 0l-1-1h1a6 6 0 010-1 11 11 0 000-4 6 6 0 010-2 7 7 0 01-2-1h-2a4 4 0 00-1 0l-2 1a6 6 0 01-2-1h3l-1-1h-1 1l-1-1 2-1h2l-1-1c1 0 0 0 0 0h1l-1-1h1l-1-1a11 11 0 002 0h1v-2l6-2 1-1-1 1 4-1h-2l-3-1h3c0-1-2 0-1-1a7 7 0 013 1h2a1 1 0 011 0 5 5 0 01-1 0h-1v-1s2 0 1-1l-5 1v-1h-1s3-1 1-1l-2 1v-1h-2l-3-1h3c1 0 0 0 0 0h1a1 1 0 011 0c1 0-3 0-2 1a7 7 0 002 0 4 4 0 001 0l-1-1 3-1h-1a3 3 0 01-2 0 5 5 0 01-2-1v-1h-1a6 6 0 013 1l1 1a4 4 0 001-1v-1a8 8 0 013 0v-1l1-6-2-4c-1-2 1-2 1-2H0l-2 1000h70c-7-4-7-10-7-10zm10-11h-1 1zm1 0c1 0 1 0 0 0zm-2 0l1-1-1 1zm5 0v-1 1zm-4-1h-1 1zm0 0a2 2 0 011 0h-1zm2-1h-1s1 0 0 0a1 1 0 011 0zm0-1v1h-1 1c-1 0 0 0 0 0h-1l1-1zm6-167v0zm-1 0s0 1 0 0zm-6-163v-1 1zm2-1zm-2 0h0zm5 0h-1 1zm-4 0h-1 1zm0-1v1l-1-1h1zm1 0h1-1s-1 0 0 0h-1l1-1a1 1 0 010 1zm0-1h1v0h-1c1 0 0 0 0 0zm7-167h0zm-1 0zm-8-164zm2 0zm-2 0h0zm5 0h-1 1zm-4 0h-1 1zm0-1h-1 1zm1 0h1-1s-1 0 0 0v-1l-1 1 1-1a1 1 0 010 1zm0-1h0c1 0 0 0 0 0zm7-167h0zm-1 0zM49 13l-1 1 1-1zm1 1h1a3 3 0 012 0h-2-1zm-6 8h-1 1zm5 6l2-1-2 1zm6 0v-1l2 1a3 3 0 01-2 0zm-3 1l-1-1 1 1zm-1 1a1 1 0 011 1l-1-1zm-2 1h0zm13 4a2 2 0 01-1 0h-1-1l-1-1a4 4 0 011 0l1 1h2zm-3-2l1 1h0a3 3 0 01-2 0l1-1zm-5 3v-1l-2-1a3 3 0 012 0h1-1l1 1v-1l1 1-2 1zm5-1h-1 1a3 3 0 011 1s1 0 0 0l-1-1zm-8 1a3 3 0 011 0h-1zm2 1zm-10 2l-1-1s-2 0-1-1l2 1h0v1zm4 0a7 7 0 01-2 0v-1l1 1 1-1c1 0 0 0 0 0l1-1v1l-1 1c0 1 0 0 0 0h1s1 0 0 0h-1zm-5 1c-1 0 0 0 0 0h-1zm3 1v-1h-1a2 2 0 011 0h2a3 3 0 01-2 1zm12 0h-1l1-1-3 1a15 15 0 01-2 0 8 8 0 01-2 0l-1-1 2-1h-1c0-1-1-2 1-1l-1 1h2l-1-1h1l2-1 1-1v2s-1 0 0 0h3l1 1v-1l1 1 1 1h2l-1 1-1-1a3 3 0 00-1 0h-1v0h-2 1l-1 1zm-10 5l-1-1 1 1zm18 14a5 5 0 01-1 0h1zm-8 0v-1a9 9 0 01-1 0l1 1zm3 0l1-1v1h-1zm2 0a16 16 0 01-3 0h3a4 4 0 011 0c1 0 1 0 0 0h-1zm-2 1c-1 0 0 0 0 0h-1a6 6 0 011 0c1 0 1 0 0 0zm3 0a7 7 0 01-1 0s-1 0 0 0h1zm-3 1s-1 0 0 0a3 3 0 011 0h-1 2c-1 0 1 0 0 0a9 9 0 01-2 0zm-2 2a9 9 0 01-1 0h1zm3 0h0zm2 1a16 16 0 01-3-1l3 1v-1a4 4 0 012 1h-1zm-2 1h-1a6 6 0 011 0c1 0 1 0 0 0zm3 0a7 7 0 01-1 0s-1 0 0 0h1zm-2 1l-1-1a4 4 0 011 0s-1 0 0 0h1a5 5 0 011 1 11 11 0 01-1 0c-1 0 1 0 0 0a9 9 0 01-1 0zm7 1c-1 0 0 0 0 0h-1 1zm-7 0h-2 2zm3 1a8 8 0 01-2-1h2-1 2a9 9 0 01-2 0l1 1s1 0 0 0zm1 0h-1a5 5 0 011 0c1 0 1 0 0 0zm-1 4l1-1 1 1a6 6 0 01-2 0zm8 2h-1v-1l2 1s1 0 0 0h-1zm-6 26v1a5 5 0 01-1 0h1s0-1 0 0zm-8 0a9 9 0 01-1 0h2zm4 0c-1 0 0 0 0 0 1 0 0 0 0 0zm2 1a16 16 0 01-3-1l2 1h1a4 4 0 011 0h-1zm-3 1h-1a7 7 0 012 0zm3 0a7 7 0 01-1 0c1 0 0 0 0 0h1zm-2 1l-1-1a3 3 0 011 0h1a5 5 0 011 1 11 11 0 01-1 0s1 0 0 0a9 9 0 01-1 0zm-12 1a4 4 0 012 0h-2zm10 1h-1a10 10 0 01-1 0s0-1 0 0h2zm3 0c-1 0 0 0 0 0 1 0 0 0 0 0zm2 0a16 16 0 01-3 0 25 25 0 012 0h1a4 4 0 011 0h-1zm-2 2a4 4 0 01-1-1h-1a6 6 0 012 0v1zm-2 11h-1 1zm-16 7l1-1 1 1h-2zm8 0c-1 0-1 0 0 0zm3 9h0zm8 5h0zm-1 0c1 0 0 0 0 0l-1 1c-2-1 0-1 1-1zm-1 2h3l-2-1a8 8 0 013 0h-1v1h-3zm0 1h1s-1 0 0 0h1a12 12 0 01-2 0zm2 2c-2-1-3-1-1-1h1l2 1a6 6 0 01-2 0zm-3 9a4 4 0 013-1l1 1h-4zm-5 1h1l1 1-2-1zm5 1v-1h2l-2 1zm-5 5l-1-1a9 9 0 01-1 0h1l1 1zm3 0l1-1v1h-1zm2 0a16 16 0 01-3 0h3a4 4 0 011 0s1 0 0 0h-1zm-5 2v-1 1zm1 2a10 10 0 01-2 0h2zm3 0h0zm-6 1a10 10 0 013 0c1 0 0 0 0 0h-3zm7 1h1-1zm-1 0c-1 0 0 0 0 0h-1a6 6 0 011 0c1 0 0 0 0 0zm-31 5h-1zm2 1l1-1a3 3 0 011 0c1 1-1 1-2 1zm-7 8v-1 1zm6 5h2l-2 1zm2 2l-1-1h1zm-4 8v1h-1v1h1a7 7 0 01-3 0v-1h2l1-1zm-5 1l-2-1h2c1 0 3 0 2 1h-2l1 1-1-1zm-5 2l1-1c1 0 0 0 0 0s0 1 0 0zm4 0h0zm3 0h-1a2 2 0 011-1l1 1h2a3 3 0 01-2 0zm3 5h-1 1zm30 31h1-1zm-4 5c1 0 0 0 0 0a5 5 0 01-1 0h1v-1zm-8-1a10 10 0 01-1 0h1zm4 0c-1 0 0 0 0 0zm2 1a16 16 0 01-4 0h3c1 0 0 0 0 0a4 4 0 012 0h-1zm-3 1h-1a6 6 0 012 0zm3 0a7 7 0 01-1 0c1 0 0 0 0 0h1zm-2 1l-1-1a3 3 0 011 0v1h1a5 5 0 011 0 11 11 0 01-1 0s1 0 0 0a9 9 0 01-1 0zm-3 2a7 7 0 01-1 0h2zm4 0c-1 0 0 0 0 0 1 0 0 0 0 0zm2 0a16 16 0 01-3 0 25 25 0 012 0h1a4 4 0 011 0v1l-1-1zm-2 2a4 4 0 01-1 0v-1h-1a6 6 0 012 0v1zm2 0a7 7 0 01-1 0v-1c1 0 0 0 0 0l2 1zm-2 0h-1a4 4 0 011 0h1a5 5 0 011 0 11 11 0 01-1 0s1 0 0 0a9 9 0 01-1 0zm7 2h-1s-1 0 0 0h1zm-7 0l-2-1h1l1 1v-1zm4 0a8 8 0 01-3 0h2c-1 0 0 0 0 0h1a9 9 0 01-1 0c-1 0 0 0 0 0h1zm1 1h-1a5 5 0 011 0zm-1 3c-1 0-1 0 0 0h1a6 6 0 01-1 0zm1 2v-1 1zm6 1l-1-1h1l1 1s1 0 0 0l-1-1zm-8 2a9 9 0 013 0h-1-2zm7 1h1-1zm0 1l1-1-1 1zm1 1h1a8 8 0 01-2 0h1zm-4 0h2-2zm-1 0l1 1s1 0 0 0a1 1 0 010-1zm2 1v1h1a2 2 0 01-1-1zm3 7c1 0 1 0 0 0h1zm-7 0h-1a9 9 0 01-1-1l2 1zm3 0h0zm2 0a16 16 0 01-3 0h3a4 4 0 011 0h-1zm-2 1a4 4 0 01-1 0h-1a6 6 0 012 0zm2 0a7 7 0 01-1 0h1s-1 0 0 0h1zm-2 1h-1a3 3 0 011 0h2a9 9 0 01-2 0zm-2 2h-1a9 9 0 01-1 0h2zm3 0h0zm0 2a4 4 0 01-1 0h0a6 6 0 011 0c1 0 0 0 0 0zm11 32h0zm1 1h2-2zm-1 1v-1 1c0 1 0 0 0 0zm1 0h1a1 1 0 01-1 0zm-2 0h1-1zm5 0v1l-1-1a2 2 0 011 0zm-1 0v1a1 1 0 01-1 0l1-1zm-5 1a2 2 0 011 0h-1zm3 0a2 2 0 01-1 0h1zm1 0h0zm-5 1l1-1-1 1zm2 0h0zm4 0zm-1 0h1a1 1 0 01-1 1v-1 1a2 2 0 01-1-1 1 1 0 011 0 2 2 0 011 0h-1zm2 0a4 4 0 01-2 0 4 4 0 011 0zm-6 0h-1zm-5 5c1 0 1 0 0 0zm-7-1h-1a9 9 0 01-1 0h1zm3 1v-1c1 0 0 0 0 0v1zm2 0a16 16 0 01-3 0h3a4 4 0 011 0h-1zm-2 1a3 3 0 01-1 0h-1a7 7 0 012 0c-1 0 0 0 0 0zm2 0a7 7 0 01-1 0c1 0 0 0 0 0h1zm-4 3h-1a10 10 0 01-1 0h2zm3 0h1-1zm2 1a16 16 0 01-3-1l2 1 1-1a4 4 0 011 1h-1zm-2 1a3 3 0 01-1 0l-1-1a6 6 0 012 0v1zm3 0a7 7 0 01-2 0l1-1-1 1h1zm-3 1l-1-1a3 3 0 011 0h1a5 5 0 011 1l-1-1 1 1a9 9 0 01-2 0zm0 1h-1 2-1zm-1 666h-1-1 2zm-1-1c1 0 0 0 0 0h2a5 5 0 011 0h-1c-1 0 1 0 0 0a9 9 0 01-2 0s-1 0 0 0zm2-1h1a7 7 0 01-1 0c-1 0-1 0 0 0zm-2 0c1 0 0 0 0 0a3 3 0 01-1 0h0a6 6 0 011 0zm2-1a4 4 0 011 0s1 0 0 0h-1a16 16 0 01-3 0h3zm-1 0h-1 1zm-5-1l1 1h-1a9 9 0 01-1-1h1zm5-3v1h1a7 7 0 01-1 0v-1zm-2 0v1a3 3 0 01-1 0v-1a6 6 0 011 0zm5-1l-1 1a1 1 0 011-1zm-3 1v-1a4 4 0 011 1h-1a16 16 0 01-3-1l3 1zm-1-1h0zm-5 0h0a9 9 0 01-1 0h1zm18-6c1 0 0 0 0 0zm-4 1h-1 1zm-1 1v-1 1zm5 0s-1 0 0 0a2 2 0 00-1 0h1a2 2 0 01-1 0 2 2 0 011 0c0-1 0 0 0 0zm1 0a4 4 0 01-1-1 4 4 0 011 0zm0-1a1 1 0 01-1 0h1c1 0 0 0 0 0zm-4 0zm2 0h0zm-1 0s-1-1 0 0zm-2-1c-1 0-1 0 0 0zm5 0h-1a3 3 0 011 0zm-3 0h-1 1zm1-1v1-1zm-2 0zm3 0h-1 1zm-2-1v-1 1zm-11-33h-1v1a4 4 0 010-1h-1a6 6 0 012 0zm0-1c-1 0 0 0 0 0zm-5-1l1 1a9 9 0 01-1 0v-1zm4-2s-1 0 0 0h1a5 5 0 011 1h-1c-1 0 1 0 0 0a9 9 0 01-1 0l-1-1a3 3 0 011 0zm1 0h1a7 7 0 01-1 0zm-1-1l-1 1c-1 0 1 0 0 0l-1-1a6 6 0 012 0zm4-1v1a5 5 0 01-1 0h1v-1zm-3 1v-1a4 4 0 012 1h-1a16 16 0 01-4-1l3 1zm-1-1h-1 1zm-5 0h1a9 9 0 01-1 0zm6-6h1a2 2 0 01-2 0h1zm-1-1a1 1 0 01-1 0h1zm0 0h0zm3-1l2 1a8 8 0 01-2-1c-1 0 1 0 0 0zm0-1h0zm-1-1l2 1-2-1zm-3-1l-1 1-2-1a9 9 0 013 0zm6-2c-1 0 1 0 0 0h-1-1s-1 0 0 0h1zm-8-1l1-1-1 1zm0-1a6 6 0 01-1 0h1c1 0 1 0 0 0zm0-4c1 0 1 0 0 0h-1a5 5 0 011 0zm3 0l-1-1-1 1 1-1 1 1zm-4-1l1 1a9 9 0 01-2-1v1h1a8 8 0 01-3 0l1-1h-1 3zm-3 0h-1-1 2zm-1-1c1 0 0 0 0 0h2a5 5 0 011 0 11 11 0 01-1 0c-1 0 1 0 0 0a9 9 0 01-2 0s-1 0 0 0zm2-1h1a7 7 0 01-1 0c-1 0-1 0 0 0zm-2 0c1 0 0 0 0 0-1 0 0 0 0 0h-1a6 6 0 011 0zm2-1a4 4 0 011 0s1 0 0 0h-1a16 16 0 01-3 0h3zm-1-1l-1 1 1-1zm-5 0h1a9 9 0 01-1 0c-1 0 0 0 0 0zm3-2c1 0 0 0 0 0h2a5 5 0 011 0h-1c-1 0 0 0 0 0a9 9 0 01-2 0s-1 0 0 0zm2-1l1 1a7 7 0 01-1-1c-1 0-1 0 0 0zm-2 0c1 0 0 0 0 0v1a3 3 0 01-1-1h0a6 6 0 011 0zm5-1h-1 1zm-3 0a4 4 0 011 0s1 0 0 0h-1a16 16 0 01-3 0h3zm-1 0h0zm-5 0h0a9 9 0 01-1 0l1-1zm13-5zm-33-38h-2v1l-1-1h-2 5zm-3 2l-1 1 1-1zm5 6l-1-1 1 1zm-2-6h2a3 3 0 01-2 1l-1-1h-1a2 2 0 012 0zm-7 0l1-1-1 1zm10-2l-2 1h2-1a7 7 0 01-2 0v-1l1 1 1-1c1 0 0 0 0 0 1 0 0 0 0 0h1zm3-9h-1 1zm-2-1l2-1-2 1zm-6-6s-1 0 0 0v1zm9-8h-2 1a3 3 0 011 0zm-4 0v-1h1l-1 1zm32-6l2 1-2-1zm0 0a4 4 0 01-1 0h-1a6 6 0 012 0zm-3-1l-1 1c-1 0-3 0-2-1a9 9 0 013 0zm3 0c-1 0 0 0 0 0 1 0 0 0 0 0zm-4 0a9 9 0 01-1 0v-1l1 1zm1-10h-1 1zm-2 7h0zm5-2a4 4 0 012 1h-1a16 16 0 01-4-1l3 1v-1zm-1 0c-1 0 0 0 0 0zm-5 0h1a9 9 0 01-1 0zm6-5h0zm4-2v1l-3-1a4 4 0 012 0h1zm-1-9h2a6 6 0 01-2 0l-1-1 1 1zm-1-1h2a12 12 0 01-3 0l1-1v1zm3-3l-1 1v1h-3l3-1h-2a8 8 0 013-1zm-1 0l1-1-1 1zm-2 0h-1l2-1-1 1zm-4-6c2 1-1 1-2 1l2-1zm-6-8l1-1-1 1zm-5-1h-2c-1 0 0 0 0 0h2zm14-6l-2-1 2 1zm1-12c1 0 0 0 0 0-1 0 0 0 0 0h-1a6 6 0 011 0zm2-1a4 4 0 011 0h-1a16 16 0 01-3 0h3zm-1-1l-1 1 1-1zm-5 0h1a9 9 0 01-2 0h1zm-7-1l-2 1 1-1a3 3 0 011 0zm10-1c1 0 0 0 0 0h2a5 5 0 011 0h-1c-1 0 0 0 0 0a9 9 0 01-2 0s-1 0 0 0zm2-1h1a7 7 0 01-1 0c-1 0-1 0 0 0zm-2 0c1 0 0 0 0 0a3 3 0 01-1 0h0a6 6 0 011 0zm5-1h-1 1zm-3 0a4 4 0 011 0h-1a16 16 0 01-3 0h3zm-1 0h0zm-4 0h-1a9 9 0 01-1 0l1-1 1 1zm14-27v1l-1-1h-1 2zm-7-2a6 6 0 01-1 0h1zm0-3h-1a6 6 0 011 0zm3-1h-1s1 0 0 0h-1 2zm-4 0a8 8 0 01-1 0c-1 0 0 0 0 0h1a8 8 0 01-3 0h2c-1 0 0 0 0 0h1zm-3 0l-1-1h-1l2 1zm-1-2h2a9 9 0 01-2 0h-1a3 3 0 011 0zm2-1s-1 0 0 0h1a7 7 0 01-2 0h1zm-2 0c1 0 0 0 0 0s0 1 0 0a4 4 0 01-1 0h-1a6 6 0 012 0zm1-1h1a4 4 0 011 0h-1a16 16 0 01-3 0h2zm0 0h0zm-6-1l2 1h-1a9 9 0 01-1 0v-1zm4-2h1a5 5 0 011 1l-1-1 1 1a9 9 0 01-2 0l-1-1a3 3 0 011 0zm1 0c1 0 0 0 0 0h1a7 7 0 01-1 0s0-1 0 0zm-1-1v1a3 3 0 01-1 0l-1-1a6 6 0 012 0zm4-1v1c-1 0 0 0 0 0v-1zm-3 1l1-1a4 4 0 011 1h-1a16 16 0 01-3-1l2 1zm-1-1c-1 0 0 0 0 0 1 0 0 0 0 0zm-5 0h2-1a9 9 0 01-1 0zm-17-20c1 0 0 0 0 0v1zm14-3h-2a3 3 0 012 0zm0 0l1 1-1-1zm-5 3h0a7 7 0 01-3-1h2l1-1v1h-1v1h1zm-3-2l-2 1 1 1-1-1-2-1h4zm0 3h-1a2 2 0 011-1l1 1h2a3 3 0 01-2 0h-1zm-3 0l1-1-1 1zm6 5h-1 1zm8-8l1 1h3v1h3v1h-1a3 3 0 00-1 0h-1-1v-1h-2l1 1-1 1-1-1h1l-3 1a15 15 0 01-2-1 8 8 0 01-2 0l-1-1h2l-1-1 1-1v1h1v-1h3v-1c2 0 0 1 0 1h1zm5-1l-2-1-1-1h1a3 3 0 011 1l1 1zm1-2a2 2 0 010 1h-1l-1-1h-2a4 4 0 011 0h3zm-3-1a1 1 0 011 0l1 1h-1a3 3 0 01-1-1c-1 0 0 0 0 0zm-3 1h-1 1l-2 1v-1h-1a3 3 0 011-1h1l1 1zm-6-3l1-1-1 1zm3-1l-1 1v-1a1 1 0 011 0zm-1-2h-1 1zm5 0a3 3 0 01-1 0l-1-1c0-1 0 0 0 0h1s2 0 1 1zm-7 0l2-1-2 1zm3-15c1 1-1 1-2 1l1-1a3 3 0 011 0zm-5 0h0zm-4 9v-1 1zm19-33h-1 1zm0-2v1h1a5 5 0 011 0h-1 1a9 9 0 01-2 0l-1-1a3 3 0 011 0zm1 0c1 0 0 0 0 0h1a7 7 0 01-1 0zm-1 0a3 3 0 01-1 0h-1a6 6 0 012 0zm1-1h1a4 4 0 011 0h-1a16 16 0 01-3-1l2 1zm-1-1c-1 0 0 0 0 0 1 0 0 0 0 0zm-5 0h2-1a10 10 0 01-1 0zm5-3c1 0 0 0 0 0h1a9 9 0 01-1 0zm-1 0c-1 0 0 0 0 0a3 3 0 01-1 0h-1a6 6 0 012 0zm4-1c1 0 0 0 0 0a5 5 0 01-1 0h1zm-3 0h1a4 4 0 011 0h-1a16 16 0 01-3 0h2zm-1 0c-1 0 0 0 0 0 1 0 0 0 0 0zm-5-1l1 1a9 9 0 01-1-1zm19-5a1 1 0 01-1 0h1zm-5 1h-1 1zm0 0h-1 1zm4 0v1l1-1v1c0 1 0 0 0 0a1 1 0 01-1 0 2 2 0 01-1 0 1 1 0 011 0l-1-1a2 2 0 012 0h-1zm1 0a4 4 0 01-1 0 5 5 0 011 0zm0 0zm-4 0c1 0 1 0 0 0zm3 0h0zm-2-1h1a2 2 0 01-1 0zm-2 0a2 2 0 011 0h-1zm6 0h-1a3 3 0 011 0zm-4-1h-1 1zm2 0h-1 1zm-2 0zm3-1a2 2 0 01-1 0h-1 2zm-2-1h-1 1zm-12-32c1 0 0 0 0 0a4 4 0 01-1 0h0a6 6 0 011 0zm1-2h0zm-5 0h0a9 9 0 01-1 0h1zm3-2c1 0 0 0 0 0h2a5 5 0 011 0h-1c-1 0 0 0 0 0a9 9 0 01-2 0h-1a3 3 0 011 0zm2-1h1a7 7 0 01-1 0c-1 0-1 0 0 0zm-2 0c1 0 0 0 0 0a3 3 0 01-1 0 6 6 0 011 0zm5-1h-1 1zm-3 0a4 4 0 011 0h-1a16 16 0 01-3 0h3zm-1 0h0zm-5-1l1 1h-1a9 9 0 01-1-1h1zm6-5c-1 0 1 0 0 0a2 2 0 01-1 0h1zm-2-1h1a1 1 0 01-1-1v1zm0-1h0zm4 0h1a8 8 0 01-2 0h1zm0-1h-1 1zm-1-1h1-1zm-4-1c1 0 0 0 0 0h-3a9 9 0 013 0zm6-2s1 0 0 0h-1l-1-1h1l1 1zm-7-1v-1 1zm0-1a6 6 0 01-1-1c-1 0 0 0 0 0l1 1zm0-4h-1a5 5 0 011 0zm2-1s1 0 0 0h-1 1zm-3 0a8 8 0 01-1 0c-1 0 0 0 0 0l1 1a8 8 0 01-3-1h2c-1 0 0 0 0 0h1zm-3 0h-3l1-1 1 1zm-1-2h1l1 1a9 9 0 01-2-1h-1a3 3 0 011 0zm1-1c1 0 0 0 0 0l1 1a7 7 0 01-1 0l1-1zm-1 0v1c-1 0 0 0 0 0a4 4 0 01-1 0v-1h-1a6 6 0 012 0zm1-1h1a4 4 0 011 1h-1a16 16 0 01-3-1h2zm-1 0c-1 0 0 0 0 0 1 0 0 0 0 0zm-5 0h2-1a9 9 0 01-1 0zm4-2h1a5 5 0 011 0h-1s1 0 0 0a9 9 0 01-1 0l-1-1a3 3 0 011 1zm1-1c1 0 0 0 0 0h1a7 7 0 01-1 0zm-1 0a3 3 0 01-1 0h-1a6 6 0 012 0zm4-1c1 0 1 0 0 0a5 5 0 01-1 0h1zm-3 0h1a4 4 0 011 0h-1a16 16 0 01-3 0h2zm-1-1v1-1c1 0 0 0 0 0zm-5 0h1a10 10 0 01-1 0zm14-4h-1 1zm-31-31h-1 1zm-3-7h-2l1 1-1-1-2-1 2 1h2zm-2 2h-1 1zm2 0h3a3 3 0 01-2 0h-1-1a2 2 0 011 0zm-6 0v-1c1 0 0 0 0 0v1zm9-2h-1v1h1a7 7 0 01-3 0v-1l1 1 1-1 1-1v1zm4-9l-1-1 1 1zm-2-1l2-1-2 1zm-6-6c-1 0-1 0 0 0zm9-8h-2-1 2a3 3 0 011 0zm-5 0l1-1c2 0 1 1-1 1zm33-6h1-1zm-1 0c1 0 0 0 0 0-1 0 0 0 0 0h-1a6 6 0 011 0zm-3-1c1 0 0 0 0 0h-3a10 10 0 013 0zm4-1h-1 1zm-4 0h-1a10 10 0 01-1 0h2zm1-9l-2-1h1l1 1zm-2 7v-1 1zm5-2a4 4 0 011 0s1 0 0 0h-1a16 16 0 01-3 0h3zm-1 0h0zm-5-1l1 1h-1a9 9 0 01-1 0l1-1zm6-4v-1h2l-2 1zm4-2h-4a4 4 0 013-1l1 1zm-1-10l2 1a6 6 0 01-2 0c-2 0-3-1-1-1h1zm-1-1l1 1a12 12 0 01-2-1h1s-1 0 0 0zm3-2l-1 1c0 1 0 0 0 0h0l-2-1a8 8 0 013 0zm-2 0l1-1-1 1zm-1-1l-1 1c-2 0 0-1 1-1zm-4-5l-3 1 3-1zm-6-9h0zm-6 0h-2l1-1 1 1zm14-7h-1 1zm2-12v1c0 1 0 0 0 0a4 4 0 01-1 0v-1h-1a6 6 0 012 0zm1-1h1a4 4 0 011 1l-1-1a16 16 0 01-3 0h2zm-1 0c-1 0 0 0 0 0 1 0 0 0 0 0zm-5 0h2-1a10 10 0 01-1 0zm-6-1h-2a4 4 0 00-1 0h1a3 3 0 012 0zm10-1h1a5 5 0 011 0h-1 1a9 9 0 01-2 0l-1-1a3 3 0 011 1zm1-1c1 0 0 0 0 0h1a7 7 0 01-1 0zm-1 0a3 3 0 01-1 0h-1a7 7 0 012 0zm4-1c1 0 1 0 0 0zm-3 0h1a4 4 0 011 0h-1a16 16 0 01-3 0h2zm-1-1v1-1c1 0 0 0 0 0zm-3 0h-1a9 9 0 01-1 0h2zm14-26s1 0 0 0h-2v-1l2 1zm-7-2a6 6 0 01-2 0h2zm0-4h-1-1a6 6 0 012 0zm2 0v-1h-1l1 1zm-3-1h-1l1 1a8 8 0 01-2-1l1 1s1 0 0 0a8 8 0 01-2-1h2a2 2 0 01-1 0h2zm-4 0h-2 2zm0-2v1h1c-1 0 1 0 0 0a9 9 0 01-1 0l-1-1a3 3 0 011 0zm1 0h1a7 7 0 01-1 0s-1 0 0 0zm-2 0c1 0 1 0 0 0h-1a6 6 0 011 0zm2-1a4 4 0 012 0h-1a16 16 0 01-4 0h3zm-1-1h-1 1zm-5 0h1a9 9 0 01-1 0zm4-2s-1 0 0 0h1a5 5 0 011 0h-1c-1 0 1 0 0 0a9 9 0 01-2 0 3 3 0 011 0zm1-1h1a7 7 0 01-1 0s-1 0 0 0zm-2 0c1 0 1 0 0 0h-1a6 6 0 011 0zm5-1a5 5 0 01-1 0 1 1 0 011 0zm-3 0a4 4 0 012 0h-2a16 16 0 01-3 0h3zm-1 0h-1 1zm-5-1l1 1a9 9 0 01-1-1c-1 0 0 0 0 0zm-9-13l-1-1 1 1zm5-10h-1a3 3 0 011 0zm1 1zm-5 2h-1a7 7 0 01-2 0v-1l1 1 1-1c1 0 0 0 0 0l1-1v1l-1 1c0 1-1 0 0 0h1zm-3 1h-2a2 2 0 012 0h2a3 3 0 01-2 1v-1zm-4 1l1-1-1 1zm-3-1l1-1-1 1zm7-2h-2v1l-1-1h-2 5zm11 0h2l1 1v-1l1 1 1 1h2l-1 1-1-1a3 3 0 00-1 0h-1v1l-1-1h-1 1l-1 1h-1l1-1-3 1a15 15 0 01-2 0 8 8 0 01-2 0l-1-1 2-1h-1c0-1-1-2 1-1l-1 1h2l-1-1h1l2-1 1-1v2s-1 0 0 0h1zm4-1l-1-2h-1 1l1 1v1zm2-2a2 2 0 01-1 0h-1-1l-1-1a3 3 0 011 0l1 1h2zm-3-2l1 1h0a3 3 0 01-2 0l1-1zm-4 1h-1l1 1v-1l1 1-2 1v-1s-2 0-1-1a3 3 0 011 0h1zm-6-3h0zm3 0l-1-1a1 1 0 011 1zm0-2l-1-1 1 1zm5-1a3 3 0 01-2 0v-1l2 1zm-8 0l2-1-2 1zm-5-6h-1 1zm9-8h-2-1 1a3 3 0 012 0zm-5 0l1-1-1 1zm-10-13l1 1-1-1z"
      fill-rule="evenodd"></path>
    <path
      d="M59 700h2a3 3 0 001 0v-1h-1l-2 1zM61 903h1a3 3 0 01-1 0h-1l-1 1 1 1h-1l2 1h2v-1h-1s-1 0 0 0a5 5 0 011 0 4 4 0 00-1-2v1s1 0 0 0v-1c0-1 0 0 0 0h-1zm1 2h-1 1zm-1-1h0zm1 0h-1 1zM61 830h2v1h3a3 3 0 011-1v1a1 1 0 010-1s-2 0-1-1h2a11 11 0 00-6 1h-1zM71 736v1zM70 803zM71 737zM74 977zM75 977h0l1 1v-1h-1zM75 979a7 7 0 001 0zM61 939h1-1 1l-1-1v1zM66 929v-1h-2l2 1zM67 982h1-1zM62 990h1-1c-1 0 0 0 0 0zM62 986zM59 906l-1 1a2 2 0 001 0 3 3 0 001 0l3-1h-1-3zM65 927a1 1 0 001 0v-1h-1v1zM52 910h1v1h1a6 6 0 001 0l-2-1h-1zM60 836zM58 913a3 3 0 00-1 0h1zM62 917v-1h-1l1 1zM62 916h-1 1zM67 594v-1 1zM62 605h2-2zM62 502a1 1 0 00-1 0zM59 579a3 3 0 00-1 0 2 2 0 011 0zM63 583zM67 596v-1h-1l1 1zM69 648zM64 652h-1a1 1 0 001 0zM64 657v0zM76 644h-1zM77 644a2 2 0 001 0h-1zM77 646a8 8 0 001 0l-1-1a1 1 0 010 1zM64 583h-1 1zM72 469h-1 1zM66 439h1-1 1a7 7 0 001 0h-2zM63 497h5a3 3 0 011 0h-1 1a1 1 0 000-1h-1-1 2a11 11 0 00-5 0l-1 1zM64 397s1 0 0 0h1a6 6 0 001 0h-3 1zM72 496l1 1a4 4 0 000-1 2 2 0 00-1 0zM73 403zM73 403h-1a1 1 0 011 0zM61 366h2a2 2 0 000 1v-1h-1-1zM54 577h1-1 1a6 6 0 001 0h-2zM63 500zM61 573h-1a2 2 0 001 1 3 3 0 001-1l3-1h-3l-1 1zM63 569v1s1 0 0 0h-1l-1 1h-1v1h5-2a5 5 0 012 0 2 2 0 000-1 4 4 0 00-1-1h-1 1a3 3 0 000-1h-1zm0 2zm0 0h0zm1 0h-1 1zM63 569l1 1-1-1zM62 569h1-1zM67 261v-1 1zM63 250v-1 1zM67 262a7 7 0 00-1 0h1zM64 250h-1 1zM61 240h-1a2 2 0 001 1 3 3 0 001-1l3-1h-3l-1 1zM54 244h1-1 1a7 7 0 001 0h-1l-1-1v1zM59 246a2 2 0 00-1 0 2 2 0 011 0zM64 319h-1a1 1 0 001 0zM64 323v1-1c-1 0 0 0 0 0zM69 315zM62 272h2-2zM76 311h-1zM77 311a2 2 0 001 0h-1zM77 312a8 8 0 001 0h-1zM73 70h-1 1zM66 106h1-1 1a7 7 0 001 0h-1l-1-1v1zM62 169a1 1 0 00-1 0zM63 163l1 1h4a3 3 0 011 0h-1 1a1 1 0 010-1h-1-1 2a11 11 0 00-5 0h-1zM72 136h-1 1zM64 64s1 0 0 0h1a6 6 0 001 0h-3 1zM61 33h0zM73 70zM72 163a3 3 0 001 0 2 2 0 00-1 0z"
      fill-rule="evenodd"></path>
    <path
      d="M63 236v1c0 1 1 0 0 0h-1l-1 1h-1v1c0 1 0 0 0 0h5-2a5 5 0 012 0 2 2 0 000-1 4 4 0 00-1-1h-1 1a3 3 0 000-1h-1zm0 2zm0 0h0zm1 0l-1-1 1 1zM63 236h1-1zM62 236h1a8 8 0 000-1l-1 1zM63 167z"
      fill-rule="evenodd"></path>
  </g>
</svg>